<svg viewBox="0 0 200 240" xmlns="http://www.w3.org/2000/svg">
  <path d="M139.67 49.25a20.65 20.65 0 0 1-20.62-20.63V0H26.92A26.91 26.91 0 0 0 0 26.91v162.22a26.9 26.9 0 0 0 7.885 19.032 26.9 26.9 0 0 0 19.035 7.878h110.6a26.907 26.907 0 0 0 26.91-26.91V49.25z" fill="#fff6f8"/>
  <path d="M164.43 49.25h-24.76a20.65 20.65 0 0 1-20.62-20.63V0zm19.52 121.36H58.91c-8.87 0-16.06 7.19-16.06 16.06v37.28c0 8.87 7.19 16.06 16.06 16.06h125.04c8.87 0 16.06-7.19 16.06-16.06v-37.28c0-8.87-7.19-16.06-16.06-16.06m-88.98-19.77H32.45a3.75 3.75 0 0 1-3.74-3.75 3.74 3.74 0 0 1 3.74-3.74h62.52a3.73 3.73 0 0 1 2.651 1.092 3.73 3.73 0 0 1 1.099 2.648 3.75 3.75 0 0 1-3.75 3.75m0-22.09H32.45a3.75 3.75 0 0 1-3.74-3.75 3.75 3.75 0 0 1 3.74-3.74h62.52a3.75 3.75 0 0 1 3.75 3.74 3.75 3.75 0 0 1-3.75 3.75m0-22.09H32.45a3.741 3.741 0 0 1-2.645-6.388 3.75 3.75 0 0 1 2.645-1.102h62.52a3.75 3.75 0 0 1 3.464 5.184 3.74 3.74 0 0 1-3.464 2.306m0-22.09H32.45a3.74 3.74 0 1 1 0-7.48h62.52a3.741 3.741 0 0 1 1.434 7.198 3.7 3.7 0 0 1-1.434.282m28.04 67.95a12.697 12.697 0 0 1-12.69-12.69v-12.69h25.37v12.69a12.7 12.7 0 0 1-12.68 12.69m-6.2-18.89v6.2a6.213 6.213 0 0 0 6.2 6.2 6.21 6.21 0 0 0 6.2-6.2v-6.2z" fill="#ff3e4c"/>
  <path d="M110.32 127.15h12.72v-12.72h-12.72z" fill="#ff3e4c"/>
  <path d="M123 114.44h12.72v-12.72H123z" fill="#ff3e4c"/>
  <path d="M110.32 101.73h12.72V89.01h-12.72z" fill="#ff3e4c"/>
  <path d="M123 89.02h12.72V76.3H123z" fill="#ff3e4c"/>
  <path d="m93.323 222 14.53-27.959v-.222H90.86V187h26v6.87L102.277 222zm30.537 0v-4.819l17.187-23.311h-17.17V187h27.983v4.819l-17.187 23.311h17.17V222z" fill="#fff"/>
</svg>
