<svg viewBox="0 0 200 240" xmlns="http://www.w3.org/2000/svg">
  <path d="M139.67 49.24a20.64 20.64 0 0 1-20.62-20.62V0H26.91A26.91 26.91 0 0 0 0 26.92v162.21A26.91 26.91 0 0 0 26.91 216h110.61a26.91 26.91 0 0 0 26.91-26.88V49.24z" fill="#e8fff3"/>
  <path d="M164.43 49.24h-24.76a20.64 20.64 0 0 1-20.62-20.62V0zm19.51 121.36H58.9c-8.87 0-16.06 7.19-16.06 16.06v37.28c0 8.87 7.19 16.06 16.06 16.06h125.04c8.87 0 16.06-7.19 16.06-16.06v-37.28c0-8.87-7.19-16.06-16.06-16.06" fill="#3ddc84"/>
  <path d="M79.553 222H70.43l11.85-35h11.3l11.85 35h-9.123l-8.248-26.182h-.275zm-1.218-13.774h19.07v6.425h-19.07zM109.43 222v-35h14.339q3.899 0 6.729 1.538 2.847 1.522 4.39 4.255 1.542 2.718 1.542 6.324 0 3.623-1.576 6.34-1.56 2.7-4.458 4.187t-6.881 1.487h-8.848v-6.665h7.288q1.899 0 3.17-.667 1.288-.666 1.949-1.862.661-1.214.661-2.82 0-1.624-.661-2.803-.661-1.197-1.949-1.846-1.288-.65-3.17-.649h-4.135V222zm31 0v-35h8.549v14.8h.466l11.692-14.8h10.068l-12.538 15.62L171.43 222h-10.224l-8.808-13.757-3.419 4.272V222z" fill="#fff"/>
  <path d="M33.43 101.85a50.7 50.7 0 0 1 97.5 0z" fill="#3ddc84"/>
  <path d="M60.73 74.55 49.03 57m56.55 17.55L117.28 57" stroke="#3ddc84" stroke-width="3" stroke-linecap="round" stroke-linejoin="round"/>
  <path d="M64.63 92.1a5.85 5.85 0 1 0 0-11.7 5.85 5.85 0 0 0 0 11.7m35.1 0a5.85 5.85 0 1 0 0-11.7 5.85 5.85 0 0 0 0 11.7" fill="#fff"/>
  <path d="M33.43 109.65h97.5v29.25h-97.5z" fill="#3ddc84"/>
</svg>
