<svg viewBox="0 0 200 240" xmlns="http://www.w3.org/2000/svg">
  <path d="M139.67 49.24a20.63 20.63 0 0 1-20.62-20.62V0H26.91A26.91 26.91 0 0 0 0 26.92v162.21a26.91 26.91 0 0 0 26.91 26.92h110.6a26.905 26.905 0 0 0 24.865-16.619 26.9 26.9 0 0 0 2.045-10.301V49.25z" fill="#ecfff4"/>
  <path d="M164.42 49.24h-24.75a20.63 20.63 0 0 1-20.62-20.62V0zm19.52 121.36H58.9c-8.87 0-16.06 7.19-16.06 16.06v37.28c0 8.87 7.19 16.06 16.06 16.06h125.04c8.87 0 16.06-7.19 16.06-16.06v-37.28c0-8.87-7.19-16.06-16.06-16.06m-79.64-24.19H60.13a16.327 16.327 0 0 1-16.31-16.31V85.93a16.33 16.33 0 0 1 16.31-16.31h44.17a16.317 16.317 0 0 1 16.3 16.31v44.17a16.32 16.32 0 0 1-16.3 16.31M60.13 76.83a9.11 9.11 0 0 0-9.1 9.1v44.17a9.11 9.11 0 0 0 9.1 9.1h44.17a9.1 9.1 0 0 0 9.09-9.1V85.93a9.1 9.1 0 0 0-9.09-9.1z" fill="#00c650"/>
  <path d="M117 121.7v8.4a12.71 12.71 0 0 1-12.7 12.7H60.13a12.7 12.7 0 0 1-12.7-12.7V116c7.07-1.52 17.84-2 30.91 3.22l8.1-7.72 5.52 14s1.48-5.15 6.26-4.42 12.52 3.32 15.83 1.11a4.26 4.26 0 0 1 2.95-.49m-15.47-26.75a4.91 4.91 0 1 0 0-9.82 4.91 4.91 0 0 0 0 9.82" fill="#00c650"/>
  <path d="M75.684 222H66.57l11.838-35h11.289l11.837 35h-9.113l-8.24-26.182h-.274zm-1.217-13.774h19.05v6.425h-19.05zm34.1-21.226 7.846 25.635h.291L124.55 187h9.49l-11.837 35h-11.289l-11.838-35zm37.731 0v35h-8.48v-35zm5.323 35v-35h23.949v6.87h-15.469v7.178h13.944v6.887h-13.944V222z" fill="#fff"/>
</svg>
