<svg xmlns="http://www.w3.org/2000/svg" viewBox="0 0 200 240">
  <path d="M139.67 49.24a20.64 20.64 0 0 1-20.62-20.62V0H26.91A26.91 26.91 0 0 0 0 26.9v162.22A26.91 26.91 0 0 0 26.91 216h110.6a26.91 26.91 0 0 0 26.92-26.91V49.24z" fill="#e8f2ff"/>
  <path d="M164.43 49.24h-24.76a20.64 20.64 0 0 1-20.62-20.62V0zm19.51 121.36H58.9c-8.87 0-16.06 7.19-16.06 16.06v37.28c0 8.87 7.19 16.06 16.06 16.06h125.04c8.87 0 16.06-7.19 16.06-16.06v-37.28c0-8.87-7.19-16.06-16.06-16.06" fill="#03a1e5"/>
  <path d="M99.417 190.237a17.47 17.47 0 0 1 6.138 10.297H95.85a8.94 8.94 0 0 0-3.29-4.134 9.3 9.3 0 0 0-5.28-1.5 8.06 8.06 0 0 0-6.491 2.95 11.93 11.93 0 0 0-2.52 7.889 11.83 11.83 0 0 0 2.52 7.852 8.1 8.1 0 0 0 6.49 2.911 9.2 9.2 0 0 0 5.281-1.499 8.9 8.9 0 0 0 3.29-4.071h9.705a17.56 17.56 0 0 1-6.138 10.272 18.5 18.5 0 0 1-11.974 3.781 18.9 18.9 0 0 1-9.704-2.445 16.66 16.66 0 0 1-6.466-6.831 21.6 21.6 0 0 1-2.268-10.083 21.6 21.6 0 0 1 2.268-10.083 16.65 16.65 0 0 1 6.466-6.831 18.9 18.9 0 0 1 9.704-2.445 18.57 18.57 0 0 1 11.974 3.97m38.018 28.009a10.85 10.85 0 0 1-4.512 4.02 15.9 15.9 0 0 1-7.209 1.5 16.92 16.92 0 0 1-10.499-3.113 11.25 11.25 0 0 1-4.512-8.684h9.755a5.14 5.14 0 0 0 1.538 3.378 4.68 4.68 0 0 0 3.339 1.26 3.92 3.92 0 0 0 2.799-.97 3.42 3.42 0 0 0 1.008-2.521 3.3 3.3 0 0 0-.933-2.407 7.5 7.5 0 0 0-2.331-1.588q-1.4-.605-3.857-1.475a47 47 0 0 1-5.873-2.382 10.85 10.85 0 0 1-3.907-3.428 9.9 9.9 0 0 1-1.639-5.924 9.97 9.97 0 0 1 1.714-5.848 11 11 0 0 1 4.739-3.781 17.4 17.4 0 0 1 6.945-1.26 15.63 15.63 0 0 1 10.082 2.999 11.52 11.52 0 0 1 4.21 8.256h-9.919a5.17 5.17 0 0 0-1.374-2.975 4.02 4.02 0 0 0-2.974-1.096 3.78 3.78 0 0 0-2.597.857 3.14 3.14 0 0 0-.995 2.521 3.25 3.25 0 0 0 .882 2.281 6.9 6.9 0 0 0 2.231 1.525c.895.391 2.18.895 3.857 1.5a41.5 41.5 0 0 1 5.948 2.445 11.3 11.3 0 0 1 3.97 3.503 10.1 10.1 0 0 1 1.664 6.012 10.6 10.6 0 0 1-1.55 5.395m34.016 0a10.87 10.87 0 0 1-4.499 4.02 15.9 15.9 0 0 1-7.21 1.5 16.95 16.95 0 0 1-10.511-3.113 11.27 11.27 0 0 1-4.499-8.684h9.755a5.12 5.12 0 0 0 1.525 3.378 4.72 4.72 0 0 0 3.352 1.26 3.88 3.88 0 0 0 2.786-.97 3.37 3.37 0 0 0 1.021-2.521 3.36 3.36 0 0 0-.933-2.407 7.6 7.6 0 0 0-2.332-1.588c-.933-.403-2.218-.895-3.869-1.475a46 46 0 0 1-5.861-2.382 10.9 10.9 0 0 1-3.919-3.428 9.98 9.98 0 0 1-1.626-5.924 9.97 9.97 0 0 1 1.714-5.848 10.94 10.94 0 0 1 4.739-3.781 17.4 17.4 0 0 1 6.944-1.26c3.607-.196 7.17.864 10.083 3a11.45 11.45 0 0 1 4.21 8.255h-9.919a5.05 5.05 0 0 0-1.361-2.974 4.02 4.02 0 0 0-2.975-1.097 3.78 3.78 0 0 0-2.596.857 3.13 3.13 0 0 0-.996 2.521 3.2 3.2 0 0 0 .882 2.281 6.9 6.9 0 0 0 2.231 1.525c.882.391 2.168.895 3.857 1.5a41.6 41.6 0 0 1 5.949 2.445 11.35 11.35 0 0 1 3.97 3.504 10.08 10.08 0 0 1 1.663 6.012 10.5 10.5 0 0 1-1.575 5.394" fill="#fff"/>
  <path d="M46.38 154.26h-2.21q-7.65 0-12.19-4.49t-4.53-12.13v-16.32q0-9.36-7.45-9.36v-7.66q7.45 0 7.45-9.36V78.62q0-7.65 4.53-12.14T44.17 62h2.21v7.66h-1.51q-9 0-9 10.17v16.72q-.11 9-7 11.38v.4q6.75 2.22 7 11.08v17q0 10.17 9 10.17h1.51zm70.62 0h2.21q7.65 0 12.19-4.49t4.53-12.13v-16.32q0-9.36 7.45-9.36v-7.66q-7.45 0-7.45-9.36V78.62q0-7.65-4.53-12.14T119.21 62H117v7.66h1.51q9 0 9 10.17v16.72q.11 9 7 11.38v.4q-6.75 2.22-7 11.08v17q0 10.17-9 10.17H117zM58.5 139a8.5 8.5 0 1 0 0-17 8.5 8.5 0 0 0 0 17m24 0a8.5 8.5 0 1 0 0-17 8.5 8.5 0 0 0 0 17m24 0a8.5 8.5 0 1 0 0-17 8.5 8.5 0 0 0 0 17" fill="#03a1e5"/>
</svg>
