<svg viewBox="0 0 200 240" xmlns="http://www.w3.org/2000/svg">
  <path d="M139.67 49.25a20.64 20.64 0 0 1-20.62-20.62V0H26.91A26.91 26.91 0 0 0 0 26.91v162.22A26.91 26.91 0 0 0 26.91 216h110.6a26.92 26.92 0 0 0 24.871-16.61 26.9 26.9 0 0 0 2.049-10.3V49.21z" fill="#e8faef"/>
  <path d="M164.43 49.25h-24.76a20.64 20.64 0 0 1-20.62-20.62V0zm19.51 121.36H58.9c-8.87 0-16.06 7.19-16.06 16.06v37.28c0 8.87 7.19 16.06 16.06 16.06h125.04c8.87 0 16.06-7.19 16.06-16.06v-37.28c0-8.87-7.19-16.06-16.06-16.06" fill="#00c650"/>
  <path d="M97.267 190.508c2.979 2.35 5.003 5.656 5.709 9.327h-9.017a8.06 8.06 0 0 0-3.049-3.751 8.73 8.73 0 0 0-4.908-1.365 7.7 7.7 0 0 0-3.333.652 7.5 7.5 0 0 0-2.694 2.02 10.6 10.6 0 0 0-2.296 7.147 10.48 10.48 0 0 0 2.296 7.112 7.5 7.5 0 0 0 2.698 2.006c1.044.46 2.183.68 3.329.644a8.74 8.74 0 0 0 4.909-1.365 8.1 8.1 0 0 0 3.072-3.694H103c-.721 3.659-2.743 6.953-5.71 9.303a17.42 17.42 0 0 1-11.135 3.442 17.9 17.9 0 0 1-9.03-2.214 15.1 15.1 0 0 1-6.003-6.195 19 19 0 0 1-2.118-9.073 19 19 0 0 1 2.118-9.086 15.1 15.1 0 0 1 6.004-6.194 17.9 17.9 0 0 1 9.029-2.214 17.48 17.48 0 0 1 11.112 3.498m34.376 26.5a9.9 9.9 0 0 1-4.137 3.632 14.8 14.8 0 0 1-6.623 1.347 15.83 15.83 0 0 1-9.644-2.797 10.24 10.24 0 0 1-2.975-3.455 10.1 10.1 0 0 1-1.162-4.379h8.959a4.53 4.53 0 0 0 1.406 3.037 4.35 4.35 0 0 0 3.079 1.142 3.65 3.65 0 0 0 2.556-.868 3.06 3.06 0 0 0 .93-2.284 2.97 2.97 0 0 0-.86-2.169 6.6 6.6 0 0 0-2.138-1.428c-.86-.377-2.033-.822-3.544-1.336a44 44 0 0 1-5.391-2.147 9.9 9.9 0 0 1-3.591-3.095 8.86 8.86 0 0 1-1.499-5.344 8.92 8.92 0 0 1 1.569-5.276 10.1 10.1 0 0 1 4.357-3.426 16.2 16.2 0 0 1 6.379-1.142 14.5 14.5 0 0 1 9.226 2.706 10.3 10.3 0 0 1 2.734 3.32 10.2 10.2 0 0 1 1.124 4.126H123.3a4.63 4.63 0 0 0-1.255-2.684 3.7 3.7 0 0 0-1.262-.771 3.8 3.8 0 0 0-1.469-.222 3.52 3.52 0 0 0-2.393.776 2.85 2.85 0 0 0-.715 1.042 2.8 2.8 0 0 0-.192 1.242c-.009.379.057.756.197 1.108s.349.675.617.948a6 6 0 0 0 2.045 1.382c.813.354 1.998.811 3.486 1.359a39.5 39.5 0 0 1 5.473 2.192 10.5 10.5 0 0 1 3.636 3.175 8.95 8.95 0 0 1 1.523 5.413 9.35 9.35 0 0 1-1.348 4.876M145.994 187l8.506 26.338L163.006 187H172l-12.092 35h-10.862L137 187z" fill="#fff"/>
  <path d="M51 83H33.145L24 133h9.145zm19 27.5a7.5 7.5 0 1 1-15 0 7.5 7.5 0 0 1 15 0m19 0a7.5 7.5 0 1 1-15 0 7.5 7.5 0 0 1 15 0m19 0a7.5 7.5 0 1 1-15 0 7.5 7.5 0 0 1 15 0M139 83h-17.855L112 133h9.145z" fill="#00c650"/>
</svg>
