<svg viewBox="0 0 200 240" xmlns="http://www.w3.org/2000/svg">
  <path d="M139.67 49.25a20.64 20.64 0 0 1-20.62-20.62V0H26.92A26.91 26.91 0 0 0 0 26.91v162.22a26.905 26.905 0 0 0 16.619 24.864 26.9 26.9 0 0 0 10.301 2.046h110.6a26.907 26.907 0 0 0 26.91-26.91V49.25z" fill="#e8f2ff"/>
  <path d="M164.43 49.25h-24.76a20.64 20.64 0 0 1-20.62-20.62V0zM92.119 79H29.6c-.492 0-.98-.13-1.434-.381a3.9 3.9 0 0 1-1.215-1.087 5.4 5.4 0 0 1-.81-1.624 6.5 6.5 0 0 1-.282-1.915c0-1.324.394-2.594 1.096-3.53C27.657 69.525 28.609 69 29.6 69h62.52c.992 0 1.944.526 2.645 1.462.702.937 1.096 2.207 1.096 3.531a6.5 6.5 0 0 1-.282 1.915 5.3 5.3 0 0 1-.81 1.624 3.9 3.9 0 0 1-1.215 1.087A2.95 2.95 0 0 1 92.12 79m40.981 22H29.609c-.994 0-1.948-.526-2.65-1.463-.704-.936-1.099-2.206-1.099-3.53a6.5 6.5 0 0 1 .282-1.915c.188-.608.464-1.16.813-1.625a3.9 3.9 0 0 1 1.217-1.086A2.96 2.96 0 0 1 29.609 91h103.492c.997 0 1.953.527 2.658 1.466.705.94 1.101 2.213 1.101 3.54-.003 1.326-.4 2.596-1.105 3.532-.704.936-1.659 1.462-2.654 1.462m0 23H29.609c-.493 0-.982-.13-1.437-.381a3.9 3.9 0 0 1-1.217-1.086 5.3 5.3 0 0 1-.812-1.625 6.5 6.5 0 0 1-.283-1.915c0-1.324.395-2.594 1.098-3.53.703-.937 1.657-1.463 2.651-1.463h103.492c.995 0 1.95.526 2.654 1.462.705.936 1.102 2.206 1.105 3.531 0 1.328-.396 2.602-1.101 3.541-.705.938-1.661 1.466-2.658 1.466m0 22H29.609c-.994 0-1.948-.526-2.65-1.463-.704-.936-1.099-2.206-1.099-3.53a6.5 6.5 0 0 1 .282-1.915 5.3 5.3 0 0 1 .813-1.625 3.9 3.9 0 0 1 1.217-1.086 3 3 0 0 1 1.437-.381h103.492c.997 0 1.953.528 2.658 1.466.705.939 1.101 2.213 1.101 3.541-.003 1.325-.4 2.595-1.105 3.531-.704.936-1.659 1.462-2.654 1.462m50.849 24.61H58.91c-8.87 0-16.06 7.19-16.06 16.06v37.28c0 8.87 7.19 16.06 16.06 16.06h125.04c8.87 0 16.06-7.19 16.06-16.06v-37.28c0-8.87-7.19-16.06-16.06-16.06" fill="#0072ff"/>
  <path d="M83.97 212.764a13.3 13.3 0 0 1-5.429 5.326 17.4 17.4 0 0 1-8.343 1.905H58.86v-29.99h11.338c2.898-.07 5.77.57 8.363 1.865a13.06 13.06 0 0 1 5.41 5.266 15.8 15.8 0 0 1 1.886 7.799 15.95 15.95 0 0 1-1.886 7.829m-7.804-1.506a8.34 8.34 0 0 0 2.355-6.323 8.3 8.3 0 0 0-2.355-6.313 9.17 9.17 0 0 0-6.607-2.254h-3.433v17.134h3.433a9.2 9.2 0 0 0 6.607-2.244m35.547-20.314a13.97 13.97 0 0 1 5.231 5.333 15.5 15.5 0 0 1 1.913 7.704 15.4 15.4 0 0 1-1.913 7.723 13.9 13.9 0 0 1-5.241 5.352 14.35 14.35 0 0 1-7.344 1.943 14.35 14.35 0 0 1-7.344-1.943 13.9 13.9 0 0 1-5.24-5.352 15.4 15.4 0 0 1-1.913-7.723c-.05-2.696.61-5.355 1.912-7.704a14 14 0 0 1 5.24-5.333 14.35 14.35 0 0 1 7.345-1.943 14.4 14.4 0 0 1 7.354 1.943M98.9 197.841a8.9 8.9 0 0 0-2.009 6.14 8.83 8.83 0 0 0 2.009 6.11 6.95 6.95 0 0 0 2.468 1.748 6.84 6.84 0 0 0 2.963.525 6.9 6.9 0 0 0 2.953-.531 7 7 0 0 0 2.46-1.742 8.83 8.83 0 0 0 2.027-6.11 8.9 8.9 0 0 0-2.008-6.111 6.95 6.95 0 0 0-2.467-1.749 6.84 6.84 0 0 0-2.965-.524 6.9 6.9 0 0 0-2.958.516 7 7 0 0 0-2.473 1.728m47.26-5.761a13.56 13.56 0 0 1 4.7 7.974h-7.431a6.9 6.9 0 0 0-2.519-3.202 7.04 7.04 0 0 0-4.044-1.161 6.1 6.1 0 0 0-2.748.555 6.2 6.2 0 0 0-2.222 1.729 9.32 9.32 0 0 0-1.93 6.11 9.24 9.24 0 0 0 1.93 6.08 6.2 6.2 0 0 0 2.228 1.708 6.14 6.14 0 0 0 2.742.547 7 7 0 0 0 4.044-1.162 6.9 6.9 0 0 0 2.519-3.152h7.431a13.62 13.62 0 0 1-4.7 7.954 14.06 14.06 0 0 1-9.168 2.928 14.34 14.34 0 0 1-7.431-1.893 12.83 12.83 0 0 1-4.951-5.29 16.9 16.9 0 0 1-1.747-7.808 16.9 16.9 0 0 1 1.747-7.808 12.83 12.83 0 0 1 4.951-5.29 14.35 14.35 0 0 1 7.431-1.894 14.1 14.1 0 0 1 9.168 3.075M175.242 220l-6.331-9.338-5.433 9.338h-8.328l9.606-15.444L154.86 190h8.618l6.162 9.039 5.302-9.039h8.289l-9.477 15.105L183.86 220z" fill="#fff"/>
</svg>
