<svg viewBox="0 0 200 241" xmlns="http://www.w3.org/2000/svg">
  <path d="M139.71 49.25a20.65 20.65 0 0 1-20.63-20.63V0H26.91A26.91 26.91 0 0 0 0 26.91v162.22A26.91 26.91 0 0 0 26.91 216h110.6a26.91 26.91 0 0 0 26.91-26.91V49.21z" fill="#edf5ff"/>
  <path d="M164.42 49.25h-24.71a20.65 20.65 0 0 1-20.63-20.63V0zm19.52 121.36H58.9c-8.87 0-16.06 7.19-16.06 16.06v37.28c0 8.87 7.19 16.06 16.06 16.06h125.04c8.87 0 16.06-7.19 16.06-16.06v-37.28c0-8.87-7.19-16.06-16.06-16.06" fill="#0072ff"/>
  <path d="M84.242 193.728v7.333h11.94v6.378h-11.94v7.775H97.71V222h-22v-35h22v6.728zM128.609 222l-7.42-10.895L114.822 222h-9.761l11.248-18.018L104.71 187h10.112l7.21 10.545L128.258 187h9.715l-11.107 17.622L138.71 222zm25.649-28.272v7.333h11.959v6.378h-11.959v7.775h13.452V222h-22v-35h22v6.728z" fill="#fff"/>
  <path d="M93.21 148.71a4.3 4.3 0 0 1-4.3-4.3v-6.61a4.29 4.29 0 0 1 4.3-4.29 4.29 4.29 0 0 1 4.29 4.29v6.61a4.3 4.3 0 0 1-4.29 4.3m0-53.29a4.3 4.3 0 0 1-4.3-4.3v-7.69a4.3 4.3 0 0 1 4.3-4.3 4.3 4.3 0 0 1 4.29 4.3v7.69a4.3 4.3 0 0 1-4.29 4.3m15.25 49.21a4.3 4.3 0 0 1-3.73-2.15l-3.2-5.56a4.29 4.29 0 0 1 3.157-6.402 4.3 4.3 0 0 1 4.283 2.112l3.2 5.55a4.3 4.3 0 0 1-1.57 5.87 4.3 4.3 0 0 1-2.14.58m-26.55-46a4.3 4.3 0 0 1-3.73-2.15l-3.94-6.81a4.3 4.3 0 0 1 7.45-4.3l3.93 6.82a4.3 4.3 0 0 1-1.57 5.87 4.3 4.3 0 0 1-2.14.57m37.7 34.83a4.3 4.3 0 0 1-2.14-.57l-5.56-3.21a4.3 4.3 0 0 1 1.038-7.875 4.3 4.3 0 0 1 3.262.425l5.56 3.21a4.3 4.3 0 0 1-2.16 8.02m-46-26.55a4.3 4.3 0 0 1-2.14-.58l-6.82-3.93a4.301 4.301 0 0 1 1.04-7.873 4.3 4.3 0 0 1 3.26.433l6.82 3.93a4.31 4.31 0 0 1 1.57 5.87 4.3 4.3 0 0 1-3.73 2.15m50.1 11.31h-6.62a4.3 4.3 0 0 1-3.041-1.259 4.3 4.3 0 0 1-1.259-3.041 4.3 4.3 0 0 1 4.3-4.29h6.62a4.3 4.3 0 0 1 4.3 4.29 4.3 4.3 0 0 1-4.3 4.3m-53.32 0h-7.68a4.3 4.3 0 0 1-4.3-4.3 4.3 4.3 0 0 1 4.3-4.29h7.67a4.3 4.3 0 0 1 3.972 2.646 4.3 4.3 0 0 1 .328 1.644 4.29 4.29 0 0 1-2.646 3.972 4.3 4.3 0 0 1-1.644.328m43.2-11.77a4.3 4.3 0 0 1-3.73-2.14 4.3 4.3 0 0 1 1.58-5.87l6-3.48a4.3 4.3 0 0 1 5.87 1.57 4.3 4.3 0 0 1-1.57 5.87l-6 3.48a4.27 4.27 0 0 1-2.15.57M66.8 133.46a4.28 4.28 0 0 1-3.72-2.15 4.3 4.3 0 0 1 1.57-5.87l6.36-3.67a4.31 4.31 0 0 1 5.87 1.57 4.3 4.3 0 0 1-1.58 5.87l-6.35 3.67a4.2 4.2 0 0 1-2.15.58" fill="#0072ff"/>
  <path d="M93.71 142.11h-.69a27.44 27.44 0 0 1-13.88-4.15 27.7 27.7 0 0 1-9.8-10.42 27.8 27.8 0 0 1-3.28-13.07v-.69a27.64 27.64 0 0 1 3.82-13.34 27.7 27.7 0 0 1 9.8-9.8 27.7 27.7 0 0 1 13.39-3.81h.63a27.5 27.5 0 0 1 13.08 3.29 27.6 27.6 0 0 1 10.41 9.78 27.5 27.5 0 0 1 4.14 13.94v.63a27.6 27.6 0 0 1-3.59 13.62 27.54 27.54 0 0 1-10.42 10.43 27.63 27.63 0 0 1-13.61 3.59m-.38-46.7a19.16 19.16 0 0 0-9.28 2.63 19.2 19.2 0 0 0-6.76 6.75 19 19 0 0 0-2.58 9.21v.44a19 19 0 0 0 2.26 9 19.1 19.1 0 0 0 6.76 7.2 19 19 0 0 0 9.6 2.85h.44a19 19 0 0 0 9.39-2.47 19 19 0 0 0 7.19-7.2 19 19 0 0 0 2.47-9.38v-.38a19.16 19.16 0 0 0-2.86-9.66 19 19 0 0 0-16.33-8.99z" fill="#0072ff"/>
  <path d="M93.71 142.11h-.69a27.44 27.44 0 0 1-13.88-4.15 27.7 27.7 0 0 1-9.8-10.42 27.8 27.8 0 0 1-3.28-13.07v-.69a27.64 27.64 0 0 1 3.82-13.34 27.7 27.7 0 0 1 9.8-9.8 27.7 27.7 0 0 1 13.39-3.81h.63a27.5 27.5 0 0 1 13.08 3.29 27.6 27.6 0 0 1 10.41 9.78 27.5 27.5 0 0 1 4.14 13.94v.63a27.6 27.6 0 0 1-3.59 13.62 27.54 27.54 0 0 1-10.42 10.43 27.63 27.63 0 0 1-13.61 3.59m-.38-46.7a19.16 19.16 0 0 0-9.28 2.63 19.2 19.2 0 0 0-6.76 6.75 19 19 0 0 0-2.58 9.21v.44a19 19 0 0 0 2.26 9 19.1 19.1 0 0 0 6.76 7.2 19 19 0 0 0 9.6 2.85h.44a19 19 0 0 0 9.39-2.47 19 19 0 0 0 7.19-7.2 19 19 0 0 0 2.47-9.38v-.38a19.16 19.16 0 0 0-2.86-9.66 19 19 0 0 0-16.33-8.99z" fill="#0072ff"/>
  <path d="M104.77 98.18a4.24 4.24 0 0 1-2.14-.57 4.3 4.3 0 0 1-2.003-2.61 4.3 4.3 0 0 1 .433-3.26l3.67-6.37a4.29 4.29 0 0 1 5.87-1.57 4.3 4.3 0 0 1 2.003 2.61 4.3 4.3 0 0 1-.433 3.26l-3.67 6.36a4.3 4.3 0 0 1-3.73 2.15m-26.81 46.45a4.26 4.26 0 0 1-2.14-.58 4.3 4.3 0 0 1-1.58-5.87l3.48-6a4.298 4.298 0 0 1 7.87 1.04 4.3 4.3 0 0 1-.43 3.26l-3.47 6a4.3 4.3 0 0 1-3.73 2.15M56.21 87a2.286 2.286 0 0 1-2.286-2.287V81.2a2.283 2.283 0 0 1 4.567 0v3.514A2.287 2.287 0 0 1 56.21 87m0-28.338a2.286 2.286 0 0 1-2.286-2.286v-4.09A2.287 2.287 0 0 1 56.21 50a2.285 2.285 0 0 1 2.28 2.287v4.089a2.287 2.287 0 0 1-2.28 2.286m8.107 26.168a2.29 2.29 0 0 1-1.983-1.143l-1.701-2.956a2.282 2.282 0 1 1 3.955-2.282l1.701 2.952a2.287 2.287 0 0 1-1.972 3.43M50.203 60.37a2.29 2.29 0 0 1-1.983-1.144l-2.095-3.621a2.287 2.287 0 0 1 3.96-2.287l2.09 3.627a2.287 2.287 0 0 1-.835 3.121 2.3 2.3 0 0 1-1.137.303M70.245 78.89c-.4 0-.792-.104-1.138-.302L66.15 76.88a2.287 2.287 0 0 1 2.286-3.962l2.956 1.707a2.286 2.286 0 0 1-1.148 4.265M45.79 64.772a2.3 2.3 0 0 1-1.137-.308l-3.626-2.09a2.286 2.286 0 0 1 1.442-4.244c.298.04.585.137.844.288l3.626 2.09a2.29 2.29 0 0 1 .834 3.121 2.29 2.29 0 0 1-1.983 1.143m26.634 6.015h-3.52a2.286 2.286 0 0 1-1.614-3.9 2.3 2.3 0 0 1 1.615-.668h3.519a2.285 2.285 0 0 1 1.616 3.898c-.428.429-1.01.67-1.616.67m-28.345 0h-4.083a2.286 2.286 0 0 1-1.615-3.9 2.3 2.3 0 0 1 1.615-.668h4.077A2.28 2.28 0 0 1 46.36 68.5a2.28 2.28 0 0 1-2.28 2.287m22.964-6.259a2.29 2.29 0 0 1-1.983-1.138 2.287 2.287 0 0 1 .84-3.122l3.19-1.85a2.286 2.286 0 0 1 2.286 3.956l-3.19 1.85a2.27 2.27 0 0 1-1.143.304M42.17 78.89a2.28 2.28 0 0 1-1.977-1.143 2.287 2.287 0 0 1 .834-3.121l3.381-1.952a2.29 2.29 0 0 1 3.12.835 2.287 2.287 0 0 1-.84 3.122l-3.375 1.951c-.346.204-.741.31-1.143.309" fill="#0072ff"/>
  <path d="M56.476 83.49h-.367a14.6 14.6 0 0 1-7.379-2.206 14.73 14.73 0 0 1-5.21-5.541 14.8 14.8 0 0 1-1.743-6.95v-.367c.063-2.5.762-4.94 2.03-7.094a14.7 14.7 0 0 1 5.21-5.211 14.7 14.7 0 0 1 7.118-2.026h.335a14.6 14.6 0 0 1 6.954 1.75 14.7 14.7 0 0 1 5.534 5.2 14.64 14.64 0 0 1 2.2 7.412v.336a14.7 14.7 0 0 1-1.908 7.242 14.69 14.69 0 0 1-12.774 7.455m-.202-24.833c-1.737.038-3.435.52-4.934 1.399a10.2 10.2 0 0 0-3.593 3.589 10.1 10.1 0 0 0-1.372 4.898v.233a10.15 10.15 0 0 0 4.795 8.615 10.1 10.1 0 0 0 5.104 1.516h.234a10.1 10.1 0 0 0 4.991-1.314 10.1 10.1 0 0 0 3.823-3.829 10.1 10.1 0 0 0 1.313-4.987v-.203a10.2 10.2 0 0 0-1.52-5.136 10.1 10.1 0 0 0-8.682-4.78z" fill="#0072ff"/>
  <path d="M56.476 83.49h-.367a14.6 14.6 0 0 1-7.379-2.206 14.73 14.73 0 0 1-5.21-5.541 14.8 14.8 0 0 1-1.743-6.95v-.367c.063-2.5.762-4.94 2.03-7.094a14.7 14.7 0 0 1 5.21-5.211 14.7 14.7 0 0 1 7.118-2.026h.335a14.6 14.6 0 0 1 6.954 1.75 14.7 14.7 0 0 1 5.534 5.2 14.64 14.64 0 0 1 2.2 7.412v.336a14.7 14.7 0 0 1-1.908 7.242 14.69 14.69 0 0 1-12.774 7.455m-.202-24.833c-1.737.038-3.435.52-4.934 1.399a10.2 10.2 0 0 0-3.593 3.589 10.1 10.1 0 0 0-1.372 4.898v.233a10.15 10.15 0 0 0 4.795 8.615 10.1 10.1 0 0 0 5.104 1.516h.234a10.1 10.1 0 0 0 4.991-1.314 10.1 10.1 0 0 0 3.823-3.829 10.1 10.1 0 0 0 1.313-4.987v-.203a10.2 10.2 0 0 0-1.52-5.136 10.1 10.1 0 0 0-8.682-4.78z" fill="#0072ff"/>
  <path d="M62.355 60.13a2.282 2.282 0 0 1-1.972-3.425l1.951-3.387a2.282 2.282 0 0 1 3.791-.247 2.28 2.28 0 0 1 .164 2.534l-1.95 3.382a2.29 2.29 0 0 1-1.984 1.143m-14.252 24.7c-.4 0-.793-.106-1.138-.308a2.286 2.286 0 0 1-.84-3.121l1.85-3.191a2.287 2.287 0 0 1 3.12-.835 2.287 2.287 0 0 1 .836 3.122l-1.845 3.19a2.29 2.29 0 0 1-1.983 1.143" fill="#0072ff"/>
</svg>
