<svg viewBox="0 0 201 240" xmlns="http://www.w3.org/2000/svg">
  <path d="M139.67 49.24a20.64 20.64 0 0 1-20.62-20.62V0H26.92A26.91 26.91 0 0 0 0 26.91v162.22A26.91 26.91 0 0 0 26.92 216h110.6a26.907 26.907 0 0 0 26.91-26.91V49.24z" fill="#fff6ea"/>
  <path d="M164.43 49.24h-24.76a20.64 20.64 0 0 1-20.62-20.62V0zm19.52 121.36H58.91c-8.87 0-16.06 7.19-16.06 16.06v37.28c0 8.87 7.19 16.06 16.06 16.06h125.04c8.87 0 16.06-7.19 16.06-16.06v-37.28c0-8.87-7.19-16.06-16.06-16.06" fill="#ff9908"/>
  <path d="M111.134 190.112a13.36 13.36 0 0 1 5.285 8.544h-8.944a6.8 6.8 0 0 0-2.717-2.943 8.4 8.4 0 0 0-4.391-1.141 8.4 8.4 0 0 0-3.51.617 8.2 8.2 0 0 0-2.913 2.018 10.2 10.2 0 0 0-2.427 7.163q0 4.894 2.543 7.518a9.6 9.6 0 0 0 3.342 2.063 9.7 9.7 0 0 0 3.906.56 8.87 8.87 0 0 0 5.285-1.631 8.68 8.68 0 0 0 3.205-4.631H99.124v-5.966h17.736v8.361a16.6 16.6 0 0 1-3.159 5.578 16.4 16.4 0 0 1-5.552 4.175 18 18 0 0 1-7.735 1.597 18.6 18.6 0 0 1-9.292-2.213 15.27 15.27 0 0 1-6.11-6.182 18.8 18.8 0 0 1-2.148-9.069 18.86 18.86 0 0 1 2.149-9.125 15.34 15.34 0 0 1 6.086-6.183 18.37 18.37 0 0 1 9.164-2.201 17.65 17.65 0 0 1 10.871 3.091M130.86 187v35h-8v-35zm29 0v6.728h-14.473v7.716h11.177v6.426h-11.177V222h-8.527v-34.942z" fill="#fff"/>
  <path d="M77.64 154.43a41.2 41.2 0 0 1-41.15-41.15 41.2 41.2 0 0 1 41.15-41.15 41.2 41.2 0 0 1 41.15 41.15 41.2 41.2 0 0 1-41.15 41.15m0-75.09a34 34 0 0 0-33.94 33.94 34 34 0 0 0 33.94 33.94 34 34 0 0 0 23.982-9.958 34 34 0 0 0 9.958-23.982 34 34 0 0 0-33.94-33.94" fill="#ff9908"/>
  <path d="M77.64 136.34a28.54 28.54 0 0 1-23.78-12.69l6-4a21.34 21.34 0 0 0 17.76 9.49 21.33 21.33 0 0 0 17.76-9.5l6 4a28.53 28.53 0 0 1-23.74 12.7m-11.41-29.37a4.79 4.79 0 1 0 0-9.58 4.79 4.79 0 0 0 0 9.58m22.82 0a4.79 4.79 0 1 0 0-9.58 4.79 4.79 0 0 0 0 9.58" fill="#ff9908"/>
</svg>
