<svg viewBox="0 0 200 240" xmlns="http://www.w3.org/2000/svg">
  <path d="M139.67 49.24a20.63 20.63 0 0 1-20.62-20.62V0H26.91A26.91 26.91 0 0 0 0 26.92v162.21a26.91 26.91 0 0 0 26.91 26.92h110.6a26.905 26.905 0 0 0 24.865-16.619 26.9 26.9 0 0 0 2.045-10.301V49.25z" fill="#ebfff3"/>
  <path d="M164.42 49.24h-24.75a20.63 20.63 0 0 1-20.62-20.62V0zm19.52 121.36H58.9c-8.87 0-16.06 7.19-16.06 16.06v37.28c0 8.87 7.19 16.06 16.06 16.06h125.04c8.87 0 16.06-7.19 16.06-16.06v-37.28c0-8.87-7.19-16.06-16.06-16.06m-79.64-24.19H60.13a16.327 16.327 0 0 1-16.31-16.31V85.93a16.33 16.33 0 0 1 16.31-16.31h44.17a16.317 16.317 0 0 1 16.3 16.31v44.17a16.32 16.32 0 0 1-16.3 16.31M60.13 76.83a9.11 9.11 0 0 0-9.1 9.1v44.17a9.11 9.11 0 0 0 9.1 9.1h44.17a9.1 9.1 0 0 0 9.09-9.1V85.93a9.1 9.1 0 0 0-9.09-9.1z" fill="#00c650"/>
  <path d="m57.07 144 47.23-1.2 12.77-11.8-1.5-10-13-7.5-13.5 7.5-17-19.5c-13.006 12.396-24.64 28.6-24.64 28.6zm44.46-49.05a4.91 4.91 0 1 0 0-9.82 4.91 4.91 0 0 0 0 9.82" fill="#00c650"/>
  <path d="M67.57 221.534v-34.068h8.213v13.674h13.39v-13.674h8.196v34.068h-8.196v-13.69h-13.39v13.69zm34.951 0v-34.068h23.693v6.687h-15.48v6.987h14.268v6.704h-14.268v7.003h15.48v6.687zm37.049-34.068v34.068h-8.213v-34.068zm36 12.343h-8.296a7.2 7.2 0 0 0-.68-2.312 5.6 5.6 0 0 0-1.361-1.764 5.8 5.8 0 0 0-2.007-1.114q-1.145-.399-2.539-.399-2.472 0-4.264 1.214-1.775 1.214-2.737 3.51-.946 2.295-.946 5.556 0 3.394.962 5.689.979 2.279 2.738 3.444 1.775 1.147 4.197 1.147 1.361 0 2.473-.349a6 6 0 0 0 1.974-1.015 5.6 5.6 0 0 0 1.41-1.647 6.7 6.7 0 0 0 .78-2.212l8.296.05q-.216 2.262-1.311 4.458-1.078 2.196-2.97 4.009-1.891 1.797-4.612 2.861-2.705 1.065-6.205 1.065-4.613 0-8.263-2.029-3.634-2.047-5.741-5.956t-2.107-9.515q0-5.622 2.14-9.532t5.791-5.939q3.65-2.03 8.18-2.029 3.085 0 5.707.865 2.621.849 4.613 2.495 1.99 1.63 3.235 4.009t1.543 5.44" fill="#fff"/>
</svg>
