<svg viewBox="0 0 200 240" xmlns="http://www.w3.org/2000/svg">
    <path d="M139.67 49.24a20.64 20.64 0 0 1-20.62-20.62V0H26.91A26.91 26.91 0 0 0 0 26.9v162.22A26.91 26.91 0 0 0 26.91 216h110.6a26.91 26.91 0 0 0 26.92-26.91V49.24z" fill="#e8faef"/>
    <path d="M164.43 49.24h-24.76a20.64 20.64 0 0 1-20.62-20.62V0zm19.51 121.36H58.9c-8.87 0-16.06 7.19-16.06 16.06v37.28c0 8.87 7.19 16.06 16.06 16.06h125.04c8.87 0 16.06-7.19 16.06-16.06v-37.28c0-8.87-7.19-16.06-16.06-16.06M36 109.932c-.012-.73.14-1.446.434-2.033.345-.66.76-1.233 1.229-1.694a15 15 0 0 1 2.197-1.424l2.197-1.355 8.789-5.507q1.832-1.272 6.83-4.237l4.178-2.541 1.503-.797.262-.17a.34.34 0 0 1 .216 0 .95.95 0 0 1 .535-.169c.353-.027.705.05 1.037.228.333.177.638.451.898.806.218.312.39.686.51 1.1.12.412.182.857.185 1.306v4.304c-.01.802-.18 1.58-.49 2.237-.31.74-.78 1.302-1.332 1.593l-17.952 10.929 17.952 10.93c.533.324.995.864 1.332 1.558.321.629.493 1.397.49 2.186v4.304c-.007.918-.257 1.795-.695 2.44-.256.367-.56.651-.893.834a1.8 1.8 0 0 1-1.042.234 1.1 1.1 0 0 1-.535-.153l-.478-.237-1.503-.796-4.178-2.559-6.83-4.219-8.789-5.507-2.197-1.356a29 29 0 0 1-2.197-1.44c-.468-.323-.868-.826-1.16-1.458a5.8 5.8 0 0 1-.502-2.134zm35.74 29.999c-.712.037-1.408-.322-1.953-1.009a3.1 3.1 0 0 1-.575-1.054 4.3 4.3 0 0 1-.212-1.324c0-.65 1.29-5.133 3.87-13.687l3.766-12.404.799-2.584 6.072-20.205 2.145-6.998.434-1.608q.25-.892.594-1.711c.3-.741.728-1.349 1.237-1.76s1.083-.614 1.662-.584h2.682c.715-.037 1.413.323 1.963 1.01.24.283.435.644.57 1.055.134.412.204.864.206 1.322-.9 3.94-1.974 7.84-3.219 11.686l-.593 1.933-4.566 14.97-6.072 20.206-2.145 7.015-.434 1.608q-.225.945-.582 1.848c-.324.729-.763 1.325-1.28 1.734-.516.41-1.092.619-1.676.61zm27.935-4.939c-.37.033-.74-.046-1.065-.226a2.7 2.7 0 0 1-.916-.838 3.8 3.8 0 0 1-.514-1.111 4.8 4.8 0 0 1-.18-1.322v-4.291c-.005-.779.154-1.541.455-2.179.34-.709.817-1.25 1.367-1.554l17.998-10.897-17.998-10.896c-.549-.359-1.015-.946-1.344-1.69A5.4 5.4 0 0 1 97 97.793v-4.358c0-.452.064-.9.188-1.312a3.5 3.5 0 0 1 .53-1.087c.536-.71 1.239-1.08 1.957-1.03a.75.75 0 0 1 .49.168.6.6 0 0 1 .296 0l.239.17c-.08 0 .41.202 1.446.793l4.235 2.534q-.33-.219 6.831 4.224a416 416 0 0 1 8.948 5.642c.216.102.501.27.865.473l1.229.727c.744.396 1.443.872 2.084 1.419.48.32.889.833 1.183 1.481s.46 1.404.479 2.185v5.237c-.005.719-.165 1.418-.456 1.993-.315.659-.727 1.203-1.206 1.588-.638.473-1.412.98-2.277 1.521l-2.277 1.351-19.832 12.316c-.569.422-.91.692-1.013.794l-.216.236z" fill="#00c650"/>
    <path d="M56 222v-34h8.21v13.646h13.386V188h8.194v34h-8.194v-13.663H64.211V222zm33.83-27.326V188h28.712v6.674h-10.301V222h-8.094v-27.326zM122.552 188h10.167l8.626 21.051h.398L150.368 188h10.168v34h-7.995v-20.885h-.282l-8.161 20.669h-5.109l-8.161-20.785h-.282V222h-7.994zm43.105 34v-34h8.211v27.326H188V222z" fill="#fff"/>
</svg>
