<svg viewBox="0 0 200 240" xmlns="http://www.w3.org/2000/svg">
  <path d="M139.67 49.24a20.63 20.63 0 0 1-20.62-20.62V0H26.91A26.91 26.91 0 0 0 0 26.92v162.21a26.91 26.91 0 0 0 26.91 26.92h110.6a26.905 26.905 0 0 0 24.865-16.619 26.9 26.9 0 0 0 2.045-10.301V49.25z" fill="#ebfff3"/>
  <path d="M164.42 49.24h-24.75a20.63 20.63 0 0 1-20.62-20.62V0zm19.52 121.36H58.9c-8.87 0-16.06 7.19-16.06 16.06v37.28c0 8.87 7.19 16.06 16.06 16.06h125.04c8.87 0 16.06-7.19 16.06-16.06v-37.28c0-8.87-7.19-16.06-16.06-16.06" fill="#00c650"/>
  <path d="M87.57 187v23.667q0 5.45-2.895 8.376a10.9 10.9 0 0 1-3.723 2.305c-1.38.505-2.845.72-4.308.633a11.9 11.9 0 0 1-4.717-.699 12.1 12.1 0 0 1-4.09-2.504q-3.256-3.214-3.267-9.218h8.099c0 3.238 1.205 4.851 3.593 4.851 2.083 0 3.12-1.244 3.12-3.721v-23.667zm13.305 22.72V222H92.57v-35h13.456q6.113 0 9.321 3.084a11 11 0 0 1 2.483 3.823c.553 1.438.801 2.98.727 4.523a11.8 11.8 0 0 1-1.427 5.82 10 10 0 0 1-4.25 4.004 14.7 14.7 0 0 1-6.854 1.466zm9.229-11.29q0-4.656-5.003-4.656h-4.226v9.114h4.226q5.004.047 5.003-4.458m22.021-4.691v7.322h11.941v6.39h-11.941v7.775h13.445V222h-22v-35h22v6.739zm46.74-3.564a13.43 13.43 0 0 1 5.287 8.542h-8.946a6.75 6.75 0 0 0-2.742-2.839 8.4 8.4 0 0 0-4.404-1.141 8.3 8.3 0 0 0-3.507.621 8.2 8.2 0 0 0-2.906 2.025 10.14 10.14 0 0 0-2.428 7.151q0 4.892 2.544 7.515a9.6 9.6 0 0 0 3.337 2.062 9.7 9.7 0 0 0 3.901.561 8.85 8.85 0 0 0 5.287-1.631 8.63 8.63 0 0 0 3.218-4.63h-10.677v-5.964h17.741v8.199a16.6 16.6 0 0 1-3.16 5.577 16.3 16.3 0 0 1-5.565 4.174 17.95 17.95 0 0 1-7.727 1.597 18.7 18.7 0 0 1-9.294-2.201 15.2 15.2 0 0 1-6.1-6.193 18.8 18.8 0 0 1-2.15-9.123 18.8 18.8 0 0 1 2.15-9.067 15.3 15.3 0 0 1 6.076-6.193 18.45 18.45 0 0 1 9.167-2.201c3.89-.166 7.725.946 10.898 3.159" fill="#fff"/>
  <path d="M104.3 146.41H60.13a16.327 16.327 0 0 1-16.31-16.31V85.93a16.33 16.33 0 0 1 16.31-16.31h44.17a16.317 16.317 0 0 1 16.3 16.31v44.17a16.32 16.32 0 0 1-16.3 16.31M60.13 76.83a9.11 9.11 0 0 0-9.1 9.1v44.17a9.11 9.11 0 0 0 9.1 9.1h44.17a9.1 9.1 0 0 0 9.09-9.1V85.93a9.1 9.1 0 0 0-9.09-9.1z" fill="#00c650"/>
  <path d="m57.07 144 47.23-1.2 12.77-11.8-1.5-10-13-7.5-13.5 7.5-17-19.5c-13.006 12.396-24.64 28.6-24.64 28.6zm44.46-49.05a4.91 4.91 0 1 0 0-9.82 4.91 4.91 0 0 0 0 9.82" fill="#00c650"/>
</svg>
