<svg xmlns="http://www.w3.org/2000/svg" viewBox="0 0 200 240">
  <path d="M139.67 49.24a20.64 20.64 0 0 1-20.62-20.62V0H26.91A26.91 26.91 0 0 0 0 26.9v162.22A26.91 26.91 0 0 0 26.91 216h110.6a26.91 26.91 0 0 0 26.92-26.91V49.24z" fill="#FFF9EE"/>
  <path d="M164.43 49.24h-24.76a20.64 20.64 0 0 1-20.62-20.62V0zm19.51 121.36H58.9c-8.87 0-16.06 7.19-16.06 16.06v37.28c0 8.87 7.19 16.06 16.06 16.06h125.04c8.87 0 16.06-7.19 16.06-16.06v-37.28c0-8.87-7.19-16.06-16.06-16.06" fill="#ffb42a"/>
  <path d="M117 187v23.659c0 3.628-.969 6.416-2.906 8.385a10.8 10.8 0 0 1-3.717 2.304c-1.378.504-2.841.72-4.303.633a11.9 11.9 0 0 1-4.723-.705 12.1 12.1 0 0 1-4.096-2.508C95.081 216.637 94 213.55 94 209.553h8.098q0 4.861 3.593 4.861 3.11 0 3.109-3.732v-23.659zm28.627 30.005a9.63 9.63 0 0 1-3.972 3.628 13.7 13.7 0 0 1-6.345 1.354 14.62 14.62 0 0 1-9.24-2.81 10.1 10.1 0 0 1-2.862-3.452 10.4 10.4 0 0 1-1.11-4.385h8.586a4.7 4.7 0 0 0 1.354 3.049 4.07 4.07 0 0 0 2.939 1.137 3.4 3.4 0 0 0 2.463-.876 3.12 3.12 0 0 0 .887-2.275c.013-.4-.053-.799-.194-1.172a3 3 0 0 0-.627-1 6.6 6.6 0 0 0-2.052-1.434q-1.231-.545-3.394-1.331a41 41 0 0 1-5.17-2.149 9.65 9.65 0 0 1-3.439-3.094 9.1 9.1 0 0 1-1.442-5.347 9.16 9.16 0 0 1 1.509-5.277 9.74 9.74 0 0 1 4.171-3.413 15 15 0 0 1 6.112-1.137 13.5 13.5 0 0 1 8.875 2.707 10.3 10.3 0 0 1 2.616 3.326 10.6 10.6 0 0 1 1.089 4.124h-8.73a4.72 4.72 0 0 0-1.209-2.684 3.5 3.5 0 0 0-1.21-.771 3.5 3.5 0 0 0-1.408-.219 3.28 3.28 0 0 0-2.286.774 2.85 2.85 0 0 0-.69 1.035 2.9 2.9 0 0 0-.186 1.24 2.98 2.98 0 0 0 .776 2.059 6.05 6.05 0 0 0 1.964 1.376c.788.353 1.919.808 3.395 1.354a36 36 0 0 1 5.236 2.206 10.1 10.1 0 0 1 3.494 3.163 9.27 9.27 0 0 1 1.464 5.425 9.74 9.74 0 0 1-1.364 4.869" fill="#fff"/>
  <path d="M55.38 154.26h-2.21q-7.65 0-12.19-4.49t-4.53-12.13v-16.32q0-9.36-7.45-9.36v-7.66q7.45 0 7.45-9.36V78.62q0-7.65 4.53-12.14T53.17 62h2.21v7.66h-1.51q-9 0-9 10.17v16.72q-.11 9-7 11.38v.4q6.75 2.22 7 11.08v17q0 10.17 9 10.17h1.51zm52.62 0h2.21q7.65 0 12.19-4.49t4.53-12.13v-16.32q0-9.36 7.45-9.36v-7.66q-7.45 0-7.45-9.36V78.62q0-7.65-4.53-12.14T110.21 62H108v7.66h1.51q9 0 9 10.17v16.72q.11 9 7 11.38v.4q-6.75 2.22-7 11.08v17q0 10.17-9 10.17H108zM82 104c6.627 0 12-5.373 12-12s-5.373-12-12-12-12 5.373-12 12 5.373 12 12 12m-7.2 16.8H94l-9.6 33.6H70z" fill="#ffb42a"/>
</svg>
