<svg viewBox="0 0 200 240" xmlns="http://www.w3.org/2000/svg">
  <path d="M139.71 49.24a20.65 20.65 0 0 1-20.63-20.62V0H26.91A26.91 26.91 0 0 0 0 26.91v162.22A26.91 26.91 0 0 0 26.91 216h110.6a26.91 26.91 0 0 0 26.91-26.91V49.24z" fill="#fff6e9"/>
  <path d="M164.42 49.24h-24.71a20.65 20.65 0 0 1-20.63-20.62V0zm19.52 121.36H58.9c-8.87 0-16.06 7.19-16.06 16.06v37.28c0 8.87 7.19 16.06 16.06 16.06h125.04c8.87 0 16.06-7.19 16.06-16.06v-37.28c0-8.87-7.19-16.06-16.06-16.06M67.11 154.14H64.9q-7.65 0-12.19-4.49t-4.53-12.13V121.2q0-9.36-7.45-9.36v-7.66q7.45 0 7.45-9.36V78.5q0-7.65 4.53-12.14t12.19-4.48h2.21v7.66H65.6q-9 0-9 10.17v16.72q-.11 9-7 11.38v.4q6.75 2.22 7 11.08v17q0 10.17 9 10.17h1.51zm30.19 0v-7.66h1.51q9 0 9-10.17v-17q.2-8.87 7-11.08v-.4q-6.86-2.42-7-11.38V79.73q0-10.17-9-10.17H97.3V61.9h2.22q7.65 0 12.18 4.48t4.54 12.14v16.32q0 9.36 7.45 9.36v7.66q-7.45 0-7.45 9.36v16.32q0 7.65-4.54 12.13t-12.18 4.49zM82.71 92.26a6.63 6.63 0 1 0 0-13.26 6.63 6.63 0 0 0 0 13.26" fill="#ff9908"/>
  <path stroke="#ff9908" stroke-width="8" stroke-linecap="round" d="M82.71 110v30"/>
  <path d="M74.218 187.466h8.068v23.555q-.017 3.31-1.57 5.789-1.555 2.462-4.3 3.826Q73.69 222 70.102 222q-3.175 0-5.77-1.115a9.17 9.17 0 0 1-4.116-3.46q-1.521-2.345-1.505-6.005h8.15q.051 1.314.497 2.246.463.915 1.273 1.381t1.934.465q1.174 0 1.984-.499.81-.515 1.224-1.513.43-.999.446-2.479zm31.507 10.214q-.166-1.83-1.471-2.845-1.29-1.031-3.687-1.031-1.587 0-2.645.416-1.059.415-1.587 1.147a2.8 2.8 0 0 0-.546 1.647q-.033.765.297 1.348.348.582.993 1.031.66.432 1.587.765a16 16 0 0 0 2.083.582l2.909.666q2.514.549 4.431 1.464 1.935.915 3.241 2.179a8.4 8.4 0 0 1 2 2.911q.678 1.647.695 3.693-.018 3.228-1.621 5.539-1.603 2.313-4.612 3.544-2.993 1.23-7.225 1.231-4.25 0-7.407-1.281t-4.91-3.893q-1.752-2.611-1.802-6.604h7.836q.1 1.647.877 2.745t2.132 1.663q1.372.566 3.175.566 1.653 0 2.81-.449 1.174-.45 1.802-1.248a2.96 2.96 0 0 0 .645-1.83q-.016-.965-.595-1.646-.579-.699-1.786-1.198-1.19-.516-3.042-.948l-3.538-.832q-4.396-1.015-6.927-3.277-2.53-2.28-2.513-6.155-.016-3.16 1.686-5.54 1.704-2.378 4.712-3.709t6.861-1.331q3.936 0 6.828 1.347 2.91 1.332 4.514 3.743 1.604 2.412 1.637 5.59zm44.39 6.82q0 5.622-2.149 9.532t-5.819 5.939q-3.654 2.03-8.201 2.029-4.563 0-8.216-2.046-3.654-2.046-5.803-5.939-2.133-3.91-2.133-9.515 0-5.622 2.133-9.532 2.15-3.91 5.803-5.939t8.216-2.029q4.547 0 8.201 2.029 3.67 2.03 5.819 5.939t2.149 9.532m-8.365 0q0-3.327-.942-5.623-.926-2.295-2.679-3.476-1.735-1.182-4.183-1.181-2.43 0-4.182 1.181-1.753 1.18-2.695 3.476-.926 2.296-.926 5.623t.926 5.623q.942 2.295 2.695 3.476t4.182 1.181q2.448 0 4.183-1.181 1.753-1.18 2.679-3.476.942-2.296.942-5.623m41.96-17.034v34.068h-6.944l-13.474-19.662h-.215v19.662h-8.184v-34.068h7.043l13.326 19.629h.281v-19.629z" fill="#fff"/>
</svg>
