<svg viewBox="0 0 200 240" xmlns="http://www.w3.org/2000/svg">
  <path d="M139.67 49.24a20.64 20.64 0 0 1-20.62-20.62V0H26.91A26.91 26.91 0 0 0 0 26.91v162.22A26.91 26.91 0 0 0 26.91 216h110.61a26.91 26.91 0 0 0 26.91-26.88V49.24z" fill="#ffedfd"/>
  <path d="M164.43 49.24h-24.76a20.64 20.64 0 0 1-20.62-20.62V0zm19.51 121.36H58.9c-8.87 0-16.06 7.19-16.06 16.06v37.28c0 8.87 7.19 16.06 16.06 16.06h125.04c8.87 0 16.06-7.19 16.06-16.06v-37.28c0-8.87-7.19-16.06-16.06-16.06" fill="#fd05e4"/>
  <path d="M104.43 187v34.965h-8.596v-21.827L88.184 222h-7.437l-7.698-21.909V222H64.43v-34.965h10.511l9.601 24.356 9.46-24.356zm4 29.531v-7.383L122.444 187h6.666v9.844h-3.809l-7.551 12.031v.273h20.68v7.383zM125.369 222v-7.725l.204-3.213V187h8.843v35zm41.768-6.435h-13.414L151.495 222h-9.065l13.035-35h9.93l13.035 35h-9.172zm-2.216-6.482-4.444-12.952-4.479 12.952z" fill="#fff"/>
  <path d="M118.428 70.964v51.821a13.48 13.48 0 0 1-2.774 8.22 13.14 13.14 0 0 1-7.171 4.745 12.98 12.98 0 0 1-8.531-.738 13.23 13.23 0 0 1-6.276-5.91 13.52 13.52 0 0 1-1.362-8.578 13.4 13.4 0 0 1 4.13-7.611 13.06 13.06 0 0 1 7.87-3.419c2.926-.218 5.84.564 8.278 2.22V89.561L71.737 99.925v34.703a13.48 13.48 0 0 1-2.772 8.221 13.14 13.14 0 0 1-7.17 4.747 12.97 12.97 0 0 1-8.532-.737 13.23 13.23 0 0 1-6.277-5.909 13.52 13.52 0 0 1-1.363-8.578 13.4 13.4 0 0 1 4.13-7.611 13.06 13.06 0 0 1 7.87-3.421c2.926-.217 5.84.565 8.278 2.221V82.807c0-.66.218-1.3.619-1.82.4-.52.96-.89 1.592-1.05l46.69-11.845a2.84 2.84 0 0 1 2.503.537c.35.276.633.63.828 1.035s.295.85.295 1.3" fill="#fd05e4"/>
</svg>
