<svg viewBox="0 0 200 240" xmlns="http://www.w3.org/2000/svg">
  <path d="M139.67 49.24a20.64 20.64 0 0 1-20.62-20.62V0H26.91A26.91 26.91 0 0 0 0 26.91v162.22A26.91 26.91 0 0 0 26.91 216h110.6a26.9 26.9 0 0 0 19.031-7.879 26.9 26.9 0 0 0 7.879-19.031V49.24z" fill="#e9f3ff"/>
  <path d="M164.42 49.24h-24.75a20.64 20.64 0 0 1-20.62-20.62V0zm19.52 121.36H58.9c-8.87 0-16.06 7.19-16.06 16.06v37.28c0 8.87 7.19 16.06 16.06 16.06h125.04c8.87 0 16.06-7.19 16.06-16.06v-37.28c0-8.87-7.19-16.06-16.06-16.06" fill="#0072ff"/>
  <path d="M106.57 187v34.965h-8.386v-21.834L90.721 222h-7.256l-7.509-21.916V222H67.57v-34.965h10.255l9.366 24.353 9.228-24.353zm29.625 2.265a16.3 16.3 0 0 1 6.13 6.214 17.97 17.97 0 0 1 2.242 8.976 18.05 18.05 0 0 1-2.242 9.055 16.33 16.33 0 0 1-6.153 6.225 16.9 16.9 0 0 1-8.607 2.264 16.96 16.96 0 0 1-8.608-2.264 16.3 16.3 0 0 1-6.142-6.225 17.94 17.94 0 0 1-2.241-9.055 17.76 17.76 0 0 1 2.241-8.976 16.43 16.43 0 0 1 6.142-6.214 16.97 16.97 0 0 1 8.608-2.264 17 17 0 0 1 8.63 2.264m-15.019 8.047a10.25 10.25 0 0 0-2.353 7.143 10.34 10.34 0 0 0 2.353 7.131 8.1 8.1 0 0 0 2.893 2.036 8.1 8.1 0 0 0 3.473.612 8.1 8.1 0 0 0 3.462-.616 8.2 8.2 0 0 0 2.882-2.032 10.25 10.25 0 0 0 2.387-7.131 10.32 10.32 0 0 0-2.365-7.12 8.1 8.1 0 0 0-2.892-2.038 8.1 8.1 0 0 0-3.474-.611 8.12 8.12 0 0 0-6.366 2.626M157.551 187l8.519 26.34 8.508-26.34h8.992l-12.09 35h-10.866l-12.044-35z" fill="#fff"/>
  <path d="M78.18 69.61a38.4 38.4 0 1 0 0 76.8A38.407 38.407 0 0 0 116.57 108a38.41 38.41 0 0 0-38.39-38.39m0 7.48a7.68 7.68 0 1 1 0 15.36 7.68 7.68 0 0 1 0-15.36M51.4 92.55a7.68 7.68 0 0 1 12.745-.836 7.68 7.68 0 0 1 .565 8.516 7.69 7.69 0 0 1-10.5 2.81 7.68 7.68 0 0 1-2.81-10.49m10.49 33.74a7.68 7.68 0 0 1-8.516-.565 7.681 7.681 0 0 1 6.667-13.513 7.7 7.7 0 0 1 4.669 3.578 7.69 7.69 0 0 1-2.82 10.5m16.29 12.65a7.681 7.681 0 1 1 2.94-14.778 7.67 7.67 0 0 1 4.74 7.098 7.68 7.68 0 0 1-7.68 7.68m26.78-15.47a7.7 7.7 0 0 1-1.972 2.258 7.68 7.68 0 0 1-5.68 1.526 7.7 7.7 0 0 1-2.838-.964 7.69 7.69 0 0 1-2.81-10.5 7.68 7.68 0 0 1 10.49-2.81 7.66 7.66 0 0 1 3.581 4.662 7.66 7.66 0 0 1-.771 5.828M102.15 103a7.68 7.68 0 0 1-11.257-8.637A7.68 7.68 0 1 1 102.15 103" fill="#0072ff"/>
  <path d="M114.31 138.48a7.6 7.6 0 0 1-1.57-.17c-4.27-1-6-5.54-6-5.73a1.31 1.31 0 0 1 .355-1.427c.129-.117.281-.206.445-.263a1.3 1.3 0 0 1 1.416.351c.116.127.206.277.264.439 0 .06 1.29 3.43 4.13 4.06 2.42.53 5.55-1 9.06-4.54a1.32 1.32 0 0 1 1.87 1.86c-3.63 3.61-6.96 5.42-9.97 5.42" fill="#0072ff"/>
</svg>
