<svg viewBox="0 0 200 240" xmlns="http://www.w3.org/2000/svg">
  <path d="M139.67 49.24a20.64 20.64 0 0 1-20.62-20.62V0H26.91A26.91 26.91 0 0 0 0 26.91v162.22A26.91 26.91 0 0 0 26.91 216h110.61a26.91 26.91 0 0 0 26.91-26.88V49.24z" fill="#ffedfd"/>
  <path d="M164.43 49.24h-24.76a20.64 20.64 0 0 1-20.62-20.62V0zm19.51 121.36H58.9c-8.87 0-16.06 7.19-16.06 16.06v37.28c0 8.87 7.19 16.06 16.06 16.06h125.04c8.87 0 16.06-7.19 16.06-16.06v-37.28c0-8.87-7.19-16.06-16.06-16.06" fill="#fd05e4"/>
  <path d="M112.43 187v34.965h-8.596v-21.827L96.184 222h-7.437l-7.698-21.909V222H72.43v-34.965h10.511l9.601 24.356 9.459-24.356zm12.304 22.72V222h-8.304v-35h13.456c4.078 0 7.197 1.036 9.333 3.096a10.95 10.95 0 0 1 2.474 3.818 11.1 11.1 0 0 1 .724 4.516 11.6 11.6 0 0 1-1.428 5.82 10.1 10.1 0 0 1-4.249 4.015 14.86 14.86 0 0 1-6.854 1.455zm9.23-11.29q0-4.586-5.003-4.598h-4.227v9.114h4.227q5.003 0 5.003-4.516m30.756-10.214a8.75 8.75 0 0 1 3.802 3.309 8.8 8.8 0 0 1 1.297 4.72 7.82 7.82 0 0 1-1.674 5.205 7.26 7.26 0 0 1-4.179 2.481v.243q6.474 2.051 6.462 8.017a9.8 9.8 0 0 1-1.319 5.084 8.9 8.9 0 0 1-3.846 3.474 13.6 13.6 0 0 1-6.052 1.246c-3.836 0-6.884-.937-9.123-2.812s-3.47-4.742-3.658-8.591h7.87a5.4 5.4 0 0 0 1.231 3.474 4.17 4.17 0 0 0 3.325 1.268 3.65 3.65 0 0 0 2.749-1.036 3.64 3.64 0 0 0 1.02-2.669q0-4.092-5.942-4.08h-1.507v-6.518h1.463q5.32.077 5.321-3.805a3.5 3.5 0 0 0-.19-1.396 3.5 3.5 0 0 0-.73-1.206 3.33 3.33 0 0 0-2.472-.916 3.34 3.34 0 0 0-2.683 1.103 5.1 5.1 0 0 0-1.108 3.077h-7.881a11.1 11.1 0 0 1 .837-4.373 11.2 11.2 0 0 1 2.488-3.7q3.06-2.811 8.58-2.812a13.6 13.6 0 0 1 5.919 1.213" fill="#fff"/>
  <path d="M118.428 70.964v51.821a13.48 13.48 0 0 1-2.774 8.22 13.14 13.14 0 0 1-7.171 4.745 12.98 12.98 0 0 1-8.531-.738 13.23 13.23 0 0 1-6.276-5.91 13.52 13.52 0 0 1-1.362-8.578 13.4 13.4 0 0 1 4.13-7.611 13.06 13.06 0 0 1 7.87-3.419c2.926-.218 5.84.564 8.278 2.22V89.561L71.737 99.925v34.703a13.48 13.48 0 0 1-2.772 8.221 13.14 13.14 0 0 1-7.17 4.747 12.97 12.97 0 0 1-8.532-.737 13.23 13.23 0 0 1-6.277-5.909 13.52 13.52 0 0 1-1.363-8.578 13.4 13.4 0 0 1 4.13-7.611 13.06 13.06 0 0 1 7.87-3.421c2.926-.217 5.84.565 8.278 2.221V82.807c0-.66.218-1.3.619-1.82.4-.52.96-.89 1.592-1.05l46.69-11.845a2.84 2.84 0 0 1 2.503.537c.35.276.633.63.828 1.035s.295.85.295 1.3" fill="#fd05e4"/>
</svg>
