<svg viewBox="0 0 200 240" xmlns="http://www.w3.org/2000/svg">
  <path d="M139.67 49.24a20.64 20.64 0 0 1-20.62-20.62V0H26.91A26.91 26.91 0 0 0 0 26.9v162.22A26.91 26.91 0 0 0 26.91 216h110.6a26.91 26.91 0 0 0 26.92-26.91V49.24z" fill="#f8f1ff"/>
  <path d="M164.43 49.24h-24.76a20.64 20.64 0 0 1-20.62-20.62V0zm19.51 121.36H58.9c-8.87 0-16.06 7.19-16.06 16.06v37.28c0 8.87 7.19 16.06 16.06 16.06h125.04c8.87 0 16.06-7.19 16.06-16.06v-37.28c0-8.87-7.19-16.06-16.06-16.06" fill="#a140ff"/>
  <path d="M107 188v34.965h-8.601v-21.834L90.745 223h-7.442L75.6 201.084V223H67v-34.965h10.518l9.606 24.353 9.465-24.353zm14.62 22.732V223H113v-35h13.979c4.233 0 7.47 1.036 9.687 3.096a10.9 10.9 0 0 1 2.571 3.824 10.8 10.8 0 0 1 .749 4.522 11.3 11.3 0 0 1-1.482 5.819 10.3 10.3 0 0 1-4.411 4.004 15.8 15.8 0 0 1-7.114 1.467zm9.58-11.29q0-4.656-5.193-4.656h-4.387v9.114h4.387q5.193.047 5.193-4.458m14.8 16.236v-7.023L161.824 187h9.007v21.368H175v7.276h-4.169V222h-8.477v-6.356zm17.045-18.965-8.522 11.689h8.522z" fill="#fff"/>
  <path d="M119.44 131.91V84.2a4 4 0 0 0-.07-.69 1 1 0 0 0-.05-.2 4 4 0 0 0-.14-.46 2 2 0 0 0-.09-.2 3 3 0 0 0-.22-.42l-.1-.16a4 4 0 0 0-.42-.51l-.07-.06a5 5 0 0 0-.43-.36l-.18-.11-.4-.22-.21-.09a4 4 0 0 0-.48-.15h-.16a3.2 3.2 0 0 0-.69-.07H48.37a3.73 3.73 0 0 0-3.39 3.71v47.87a2.6 2.6 0 0 0 .55 1.7 3.71 3.71 0 0 0 3.19 1.82h67a3.74 3.74 0 0 0 3.72-3.69M49 89.48v-7.24h5.89v7.24zm9.94 0v-7.24h5.89v7.24zm9.94 0v-7.24h5.89v7.24zm9.94 0v-7.24h5.89v7.24zm9.94 0v-7.24h5.89v7.24zm9.94 0v-7.24h5.89v7.24zm9.94 0v-7.24h5.89v7.24zm-61 35.11V91.44h69.23v33.15zm1.35 9.19v-7.24h5.89v7.24zm9.94 0v-7.24h5.89v7.24zm9.94 0v-7.24h5.89v7.24zm9.94 0v-7.24h5.89v7.24zm9.94 0v-7.24h5.89v7.24zm9.94 0v-7.24h5.89v7.24zm9.94 0v-7.24h5.89v7.24z" fill="#a140ff"/>
  <path d="m90.22 105.56-9.57-5.53a3.26 3.26 0 0 0-4.88 2.82v11.06a3.26 3.26 0 0 0 4.88 2.82l9.57-5.53a3.26 3.26 0 0 0 1.624-2.82 3.26 3.26 0 0 0-1.624-2.82" fill="#a140ff"/>
</svg>
