<svg viewBox="0 0 200 240" fill="none" xmlns="http://www.w3.org/2000/svg">
  <path opacity=".91" d="M139.67 49.25a20.64 20.64 0 0 1-20.62-20.62V0H26.91A26.91 26.91 0 0 0 0 26.91v162.22A26.91 26.91 0 0 0 26.91 216h110.61a26.91 26.91 0 0 0 26.91-26.87V49.25z" fill="#ffeeef"/>
  <path d="M164.43 49.25h-24.76a20.64 20.64 0 0 1-20.62-20.62V0zm19.51 121.36H58.9c-8.87 0-16.06 7.19-16.06 16.06v37.28c0 8.87 7.19 16.06 16.06 16.06h125.04c8.87 0 16.06-7.19 16.06-16.06v-37.28c0-8.87-7.19-16.06-16.06-16.06" fill="#ff3e4c"/>
  <path d="M84.373 209.72V222H75.43v-35h14.491c4.392 0 7.75 1.036 10.05 3.096a10.9 10.9 0 0 1 2.667 3.824c.593 1.438.859 2.979.778 4.522a10.93 10.93 0 0 1-1.538 5.819c-1.074 1.736-2.666 3.133-4.576 4.016a16.9 16.9 0 0 1-7.38 1.455zm9.94-11.278q0-4.656-5.388-4.656h-4.552v9.114h4.552q5.388.047 5.388-4.458m39.147 15.116c-1.296 2.646-3.253 4.806-5.63 6.214-2.675 1.539-5.649 2.303-8.653 2.222H107.43v-34.987h11.747c3.006-.085 5.985.662 8.673 2.175 2.371 1.377 4.323 3.516 5.61 6.144 1.347 2.79 2.024 5.925 1.967 9.099.056 3.184-.622 6.33-1.967 9.133m-8.094-1.756a10 10 0 0 0 1.914-3.399c.421-1.27.601-2.625.529-3.978a10.8 10.8 0 0 0-.528-3.973 9.9 9.9 0 0 0-1.915-3.393c-1.882-1.857-4.341-2.802-6.841-2.629h-3.571v19.989h3.571c2.498.171 4.955-.769 6.841-2.617M167.43 187v6.739h-17.605v7.671h13.593v6.436h-13.593V222H139.43v-35z" fill="#fff"/>
  <path d="M77.557 55.102c1.898-.303 3.265.054 4.755 1.263 8.56 6.94-1.032 30.734-8.242 48.59-7.53 18.648-15.851 34.391-29.483 42.279-2.5 1.446-5.22.744-7.292-1.262-2.323-2.248-2.276-5.261-.951-8.203 4.121-9.15 27.628-18.507 47.87-23.349 15.207-3.637 28.216-5.995 39.946-2.839 3.419.919 6.023 4.417 5.072 8.203-.555 2.209-2.219 4.575-6.023 4.417-15.218-.631-22.826-7.888-33.605-21.14C78.825 89.81 70.9 75.296 72.484 60.781c.323-2.95 2.13-5.208 5.073-5.679Z" stroke="#ff3e4c" stroke-width="7"/>
</svg>
