<svg viewBox="0 0 200 240" xmlns="http://www.w3.org/2000/svg">
  <path d="M139.67 49.24a20.64 20.64 0 0 1-20.62-20.62V0H26.91A26.91 26.91 0 0 0 0 26.91v162.22A26.91 26.91 0 0 0 26.91 216h110.61a26.91 26.91 0 0 0 26.91-26.88V49.24z" fill="#ecf5ff"/>
  <path d="M164.43 49.24h-24.76a20.64 20.64 0 0 1-20.62-20.62V0zm19.51 121.36H58.9c-8.87 0-16.06 7.19-16.06 16.06v37.28c0 8.87 7.19 16.06 16.06 16.06h125.04c8.87 0 16.06-7.19 16.06-16.06v-37.28c0-8.87-7.19-16.06-16.06-16.06" fill="#0072ff"/>
  <path d="M79.062 209.732V222H70.43v-35h13.968q6.368 0 9.687 3.096a10.95 10.95 0 0 1 2.576 3.823 10.8 10.8 0 0 1 .756 4.523 11.3 11.3 0 0 1-1.494 5.819 10.17 10.17 0 0 1-4.41 4.004 15.65 15.65 0 0 1-7.115 1.467zm9.58-11.29q0-4.656-5.193-4.656h-4.387v9.114h4.387q5.194.047 5.194-4.458M133.43 222h-8.435l-14.13-21.487V222h-8.435v-35h8.435l14.119 21.684V187h8.434zm32.431-31.888a13.4 13.4 0 0 1 5.129 8.544h-8.68a6.8 6.8 0 0 0-2.626-2.943 8 8 0 0 0-4.273-1.141 7.9 7.9 0 0 0-3.406.617 8 8 0 0 0-2.828 2.018 10.4 10.4 0 0 0-2.344 7.164q0 4.893 2.468 7.517a9.2 9.2 0 0 0 3.238 2.063 9.1 9.1 0 0 0 3.785.56 8.43 8.43 0 0 0 5.13-1.631 8.6 8.6 0 0 0 3.111-4.631h-10.349v-5.966h17.214v8.361a17 17 0 0 1-3.077 5.578 15.8 15.8 0 0 1-5.389 4.175 17 17 0 0 1-7.508 1.597 17.66 17.66 0 0 1-9.018-2.213 14.96 14.96 0 0 1-5.918-6.182 19.16 19.16 0 0 1-2.086-9.069 19.2 19.2 0 0 1 2.086-9.125 15.04 15.04 0 0 1 5.896-6.183 17.4 17.4 0 0 1 8.894-2.201 16.76 16.76 0 0 1 10.551 3.091" fill="#fff"/>
  <path d="M54.7 66.72H40.95v13.75H54.7zm13.76 13.75H54.71v13.75h13.75zm13.75-13.75H68.46v13.75h13.75zm13.75 13.75H82.21v13.75h13.75zm13.77-13.75H95.98v13.75h13.75zm13.75 13.75h-13.75v13.75h13.75zM54.7 94.2H40.95v13.75H54.7zm13.76 13.75H54.71v13.75h13.75z" fill="#0072ff"/>
  <path d="M82.21 94.2H68.46v13.75h13.75zm13.75 13.75H82.21v13.75h13.75zm13.77-13.75H95.98v13.75h13.75zm13.75 13.75h-13.75v13.75h13.75zM54.7 121.81H40.95v13.75H54.7zm13.76 13.75H54.71v13.75h13.75zm13.75-13.75H68.46v13.75h13.75zm13.75 13.75H82.21v13.75h13.75zm13.77-13.75H95.98v13.75h13.75zm13.75 13.75h-13.75v13.75h13.75z" fill="#0072ff"/>
</svg>
