<svg viewBox="0 0 200 240" xmlns="http://www.w3.org/2000/svg">
  <path d="M139.67 49.25a20.64 20.64 0 0 1-20.62-20.62V0H26.91A26.91 26.91 0 0 0 0 26.91v162.22a26.91 26.91 0 0 0 26.91 26.91h110.6a26.91 26.91 0 0 0 26.92-26.91V49.25z" fill="#fff0eb"/>
  <path d="M164.43 49.25h-24.76a20.64 20.64 0 0 1-20.62-20.62V0zm19.51 121.36H58.9c-8.87 0-16.06 7.19-16.06 16.06v37.28c0 8.87 7.19 16.06 16.06 16.06h125.04c8.87 0 16.06-7.19 16.06-16.06v-37.28c0-8.87-7.19-16.06-16.06-16.06" fill="#ed6b47"/>
  <path d="M66.305 209.72V222H58v-35h13.457q6.122 0 9.32 3.096a11 11 0 0 1 2.482 3.823c.553 1.438.801 2.979.729 4.523a11.7 11.7 0 0 1-1.428 5.819 10.06 10.06 0 0 1-4.261 4.016 14.6 14.6 0 0 1-6.854 1.455zm9.23-11.278q0-4.656-5.004-4.656h-4.226v9.114h4.226q5.004.047 5.003-4.458m20.778 11.278V222H88v-35h13.451q6.131 0 9.328 3.096a11 11 0 0 1 2.48 3.823c.553 1.438.801 2.979.729 4.523a11.6 11.6 0 0 1-1.439 5.819 9.96 9.96 0 0 1-4.248 4.016 14.6 14.6 0 0 1-6.85 1.455zm9.226-11.278q0-4.656-5.001-4.656h-4.225v9.114h4.225q5.001.047 5.001-4.458M146 187v6.739h-9.706V222h-8.683v-28.261H118V187zm27.9 35-7.421-10.894L160.101 222h-9.75l11.248-18.018L150 187h10.101l7.221 10.545L173.548 187h9.703l-11.096 17.622L184 222z" fill="#fff"/>
  <path d="M74.69 83.73H31a3.75 3.75 0 0 1-3.75-3.74A3.75 3.75 0 0 1 31 76.24h43.65a3.75 3.75 0 0 1 3.75 3.75 3.75 3.75 0 0 1-3.71 3.74m0 22.37H31a3.75 3.75 0 0 1-3.75-3.74A3.75 3.75 0 0 1 31 98.61h43.65a3.75 3.75 0 0 1 3.75 3.75 3.75 3.75 0 0 1-3.71 3.74m0 22.37H31a3.75 3.75 0 0 1-3.75-3.75A3.75 3.75 0 0 1 31 121h43.65a3.75 3.75 0 0 1 3.75 3.74 3.75 3.75 0 0 1-3.71 3.73m0 22.37H31a3.75 3.75 0 0 1-3.75-3.75 3.75 3.75 0 0 1 3.75-3.74h43.65a3.75 3.75 0 0 1 3.75 3.74 3.75 3.75 0 0 1-3.71 3.75M117.25 118V84.76a31.67 31.67 0 0 0-27.593 43.737 31.65 31.65 0 0 0 29.253 19.543 31.65 31.65 0 0 0 31.61-30z" fill="#ed6b47"/>
  <path d="M123.31 82.23v30h30a31.66 31.66 0 0 0-30-30" fill="#ed6b47"/>
</svg>
