<svg viewBox="0 0 201 241" xmlns="http://www.w3.org/2000/svg">
  <path d="M139.67 49.25a20.65 20.65 0 0 1-20.62-20.63V0H26.92A26.91 26.91 0 0 0 0 26.91v162.22a26.9 26.9 0 0 0 7.885 19.032 26.9 26.9 0 0 0 19.035 7.878h110.6a26.907 26.907 0 0 0 26.91-26.91V49.25z" fill="#f8f1ff"/>
  <path d="M164.43 49.25h-24.76a20.65 20.65 0 0 1-20.62-20.63V0zm19.52 121.36H58.91c-8.87 0-16.06 7.19-16.06 16.06v37.28c0 8.87 7.19 16.06 16.06 16.06h125.04c8.87 0 16.06-7.19 16.06-16.06v-37.28c0-8.87-7.19-16.06-16.06-16.06" fill="#a140ff"/>
  <path d="m89.645 222-7.499-13.22h-1.912V222H71.86v-34.994h14.306a15.4 15.4 0 0 1 6.912 1.431 9.9 9.9 0 0 1 4.261 3.934 11.4 11.4 0 0 1 1.417 5.725 10.2 10.2 0 0 1-2.085 6.483 10.55 10.55 0 0 1-6.047 3.654L98.86 222zm-9.41-19.004h5.194a5.17 5.17 0 0 0 3.675-1.164 4.35 4.35 0 0 0 1.152-3.293 4.43 4.43 0 0 0-1.152-3.27 5 5 0 0 0-3.652-1.164h-5.195zm47.596 12.569h-12.988L112.676 222h-8.816l12.677-35h9.646l12.677 35h-8.92zm-2.155-6.482-4.322-12.964-4.356 12.964zM161.645 222l-7.499-13.22h-1.912V222h-8.374v-34.994h14.306a15.4 15.4 0 0 1 6.912 1.431 9.93 9.93 0 0 1 4.262 3.934 11.4 11.4 0 0 1 1.416 5.725 10.2 10.2 0 0 1-2.085 6.483 10.55 10.55 0 0 1-6.047 3.654L170.86 222zm-9.411-19.004h5.195a5.2 5.2 0 0 0 3.675-1.164c.409-.437.723-.956.921-1.523a4.4 4.4 0 0 0 .231-1.77 4.43 4.43 0 0 0-1.152-3.27 5 5 0 0 0-3.652-1.164h-5.195z" fill="#fff"/>
  <path d="M94.97 150.84H32.45a3.75 3.75 0 0 1-3.74-3.75 3.74 3.74 0 0 1 3.74-3.74h62.52a3.73 3.73 0 0 1 2.651 1.092 3.73 3.73 0 0 1 1.099 2.648 3.75 3.75 0 0 1-3.75 3.75m0-22.09H32.45a3.75 3.75 0 0 1-3.74-3.75 3.75 3.75 0 0 1 3.74-3.74h62.52a3.75 3.75 0 0 1 3.75 3.74 3.75 3.75 0 0 1-3.75 3.75m0-22.09H32.45a3.741 3.741 0 0 1-2.645-6.388 3.75 3.75 0 0 1 2.645-1.102h62.52a3.75 3.75 0 0 1 3.464 5.184 3.74 3.74 0 0 1-3.464 2.306m0-22.09H32.45a3.74 3.74 0 1 1 0-7.48h62.52a3.741 3.741 0 0 1 1.434 7.198 3.7 3.7 0 0 1-1.434.282m28.04 67.95a12.697 12.697 0 0 1-12.69-12.69v-12.69h25.37v12.69a12.7 12.7 0 0 1-12.68 12.69m-6.2-18.89v6.2a6.213 6.213 0 0 0 6.2 6.2 6.21 6.21 0 0 0 6.2-6.2v-6.2z" fill="#a140ff"/>
  <path d="M110.32 127.15h12.72v-12.72h-12.72z" fill="#a140ff"/>
  <path d="M123 114.44h12.72v-12.72H123z" fill="#a140ff"/>
  <path d="M110.32 101.73h12.72V89.01h-12.72z" fill="#a140ff"/>
  <path d="M123 89.02h12.72V76.3H123z" fill="#a140ff"/>
</svg>
