<svg viewBox="0 0 201 240" xmlns="http://www.w3.org/2000/svg">
  <path d="M139.67 49.24a20.64 20.64 0 0 1-20.62-20.62V0H26.92A26.92 26.92 0 0 0 0 26.92v162.21a26.92 26.92 0 0 0 26.92 26.92h110.6a26.905 26.905 0 0 0 24.864-16.619 26.9 26.9 0 0 0 2.046-10.301V49.25z" fill="#fff6ea"/>
  <path d="M164.43 49.24h-24.76a20.64 20.64 0 0 1-20.62-20.62V0zm19.52 121.36H58.91c-8.87 0-16.06 7.19-16.06 16.06v37.28c0 8.87 7.19 16.06 16.06 16.06h125.04c8.87 0 16.06-7.19 16.06-16.06v-37.28c0-8.87-7.19-16.06-16.06-16.06" fill="#ff9908"/>
  <path d="M94.432 217.002a9.76 9.76 0 0 1-4.118 3.631 14.7 14.7 0 0 1-6.611 1.354 15.7 15.7 0 0 1-9.61-2.8 10.16 10.16 0 0 1-2.972-3.455 10 10 0 0 1-1.147-4.387h8.93a4.6 4.6 0 0 0 1.395 3.051 4.34 4.34 0 0 0 3.07 1.138 3.6 3.6 0 0 0 2.549-.865c.307-.295.55-.649.71-1.041.162-.392.238-.813.224-1.236a3 3 0 0 0-.865-2.185 6.5 6.5 0 0 0-2.134-1.423q-1.28-.558-3.53-1.331a44 44 0 0 1-5.377-2.152 9.8 9.8 0 0 1-3.576-3.107 8.82 8.82 0 0 1-1.5-5.349 8.88 8.88 0 0 1 1.569-5.27 9.95 9.95 0 0 1 4.35-3.415 16.1 16.1 0 0 1 6.345-1.138 14.38 14.38 0 0 1 9.23 2.709 10.4 10.4 0 0 1 2.689 3.249 10.3 10.3 0 0 1 1.164 4.035h-9.08a4.53 4.53 0 0 0-1.257-2.686 3.7 3.7 0 0 0-1.258-.772 3.7 3.7 0 0 0-1.465-.218 3.5 3.5 0 0 0-2.377.774 2.85 2.85 0 0 0-.715 1.037 2.8 2.8 0 0 0-.196 1.239 2.83 2.83 0 0 0 .819 2.049 6.1 6.1 0 0 0 2.03 1.389c.82.352 1.996.808 3.53 1.354a38 38 0 0 1 5.446 2.197 10.4 10.4 0 0 1 3.634 3.175 9 9 0 0 1 1.523 5.418 9.3 9.3 0 0 1-1.419 5.031M109.118 188l8.736 26.329L126.602 188h9.258l-12.444 35h-11.172L99.86 188zm58.171 2.262a13.5 13.5 0 0 1 5.142 8.543h-8.683a6.66 6.66 0 0 0-2.638-2.931 8 8 0 0 0-4.274-1.141 7.9 7.9 0 0 0-3.41.621 8 8 0 0 0-2.826 2.025 10.34 10.34 0 0 0-2.346 7.152q0 4.893 2.47 7.517a9.2 9.2 0 0 0 3.238 2.062c1.21.452 2.5.643 3.787.561a8.4 8.4 0 0 0 5.131-1.631 8.64 8.64 0 0 0 3.124-4.631H155.64v-5.965h17.22v8.201a16.9 16.9 0 0 1-3.067 5.577 16 16 0 0 1-5.402 4.175 17 17 0 0 1-7.499 1.597 17.7 17.7 0 0 1-9.021-2.202 15 15 0 0 1-5.921-6.193 19.24 19.24 0 0 1-2.086-9.125 19.25 19.25 0 0 1 2.086-9.068 15.1 15.1 0 0 1 5.898-6.194 17.4 17.4 0 0 1 8.898-2.201 16.8 16.8 0 0 1 10.543 3.251" fill="#fff"/>
  <path d="M123.03 127.73h-2.49a38.11 38.11 0 0 0-38.07-38.06 38.1 38.1 0 0 0-38.06 38.06h-2.5a40.6 40.6 0 0 1 40.56-40.55 40.6 40.6 0 0 1 40.56 40.55" fill="#ff9908"/>
  <path d="M140.1 87.18H24.84v2.49H140.1zm-92.96 36.57h-7.97v7.97h7.97zm78.62 0h-7.97v7.97h7.97z" fill="#ff9908"/>
  <path d="M86.45 84.31h-7.97v7.97h7.97zm-61.74 7.98a3.99 3.99 0 1 0 0-7.98 3.99 3.99 0 0 0 0 7.98m115.01 0a3.99 3.99 0 1 0 0-7.98 3.99 3.99 0 0 0 0 7.98" fill="#ff9908"/>
</svg>
