<svg viewBox="0 0 200 240" xmlns="http://www.w3.org/2000/svg">
  <path d="M139.67 49.248a20.65 20.65 0 0 1-20.63-20.62V0H26.91A26.91 26.91 0 0 0 0 26.909v162.213a26.91 26.91 0 0 0 26.91 26.909h110.6a26.91 26.91 0 0 0 26.91-26.909V49.248z" fill="#eef6ff"/>
  <path d="M164.42 49.248h-24.75a20.65 20.65 0 0 1-20.63-20.62V0zm19.52 121.355H58.9c-8.87 0-16.06 7.19-16.06 16.059v37.279C42.84 232.81 50.03 240 58.9 240h125.04c8.87 0 16.06-7.19 16.06-16.059v-37.279c0-8.869-7.19-16.059-16.06-16.059" fill="#0072ff"/>
  <path d="M97.857 186.992v6.809h-9.608v28.551h-8.596v-28.551H70.14v-6.809zm30.117 35.096-7.4-10.924-6.361 10.924h-9.723l11.217-18.068-11.567-17.028h10.073l7.201 10.574 6.209-10.574h9.676l-11.065 17.67 11.812 17.426zm43.377-35.096v6.687h-9.425v28.042h-8.454v-28.042h-9.332v-6.687z" fill="#fff"/>
  <path d="M44.14 65.997h75.2v18.8h-7.52l-1.88-11.28h-14.1v69.557l14.1 1.88v5.64h-56.4v-5.64l14.1-1.88V73.517h-14.1l-1.88 11.28h-7.52z" fill="#0072ff"/>
</svg>
