<svg viewBox="0 0 200 240" xmlns="http://www.w3.org/2000/svg">
  <path d="M139.67 49.24a20.64 20.64 0 0 1-20.62-20.62V0H26.91A26.91 26.91 0 0 0 0 26.91v162.22A26.91 26.91 0 0 0 26.91 216h110.61a26.91 26.91 0 0 0 26.91-26.88V49.24z" fill="#ffedfd"/>
  <path d="M164.43 49.24h-24.76a20.64 20.64 0 0 1-20.62-20.62V0zm19.51 121.36H58.9c-8.87 0-16.06 7.19-16.06 16.06v37.28c0 8.87 7.19 16.06 16.06 16.06h125.04c8.87 0 16.06-7.19 16.06-16.06v-37.28c0-8.87-7.19-16.06-16.06-16.06m-65.512-99.636v51.821a13.48 13.48 0 0 1-2.774 8.22 13.14 13.14 0 0 1-7.171 4.745 12.98 12.98 0 0 1-8.531-.738 13.23 13.23 0 0 1-6.276-5.91 13.52 13.52 0 0 1-1.362-8.578 13.4 13.4 0 0 1 4.13-7.611 13.06 13.06 0 0 1 7.87-3.419c2.926-.218 5.84.564 8.278 2.22V89.561L71.737 99.925v34.703a13.48 13.48 0 0 1-2.772 8.221 13.14 13.14 0 0 1-7.17 4.747 12.97 12.97 0 0 1-8.532-.737 13.23 13.23 0 0 1-6.277-5.909 13.52 13.52 0 0 1-1.363-8.578 13.4 13.4 0 0 1 4.13-7.611 13.06 13.06 0 0 1 7.87-3.421c2.926-.217 5.84.565 8.278 2.221V82.807c0-.66.218-1.3.619-1.82.4-.52.96-.89 1.592-1.05l46.69-11.845a2.84 2.84 0 0 1 2.503.537c.35.276.633.63.828 1.035s.295.85.295 1.3" fill="#fd05e4"/>
  <path d="m106.43 187-8.382 35H87.555l-5.596-23.419L76.305 222H65.812l-8.382-35h9.222l4.511 25.351L77.32 187h9.327l6.156 25.351L97.36 187zm27.963 28.565h-12.995L119.243 222h-8.813l12.673-35h9.654l12.673 35h-8.917zm-2.166-6.482-4.308-12.952-4.355 12.952zM158.423 187l8.507 26.34 8.507-26.34h8.993l-12.09 35h-10.866l-12.044-35z" fill="#fff"/>
</svg>
