<svg viewBox="0 0 200 240" xmlns="http://www.w3.org/2000/svg">
  <path d="M139.67 49.24a20.63 20.63 0 0 1-20.62-20.62V0H26.91A26.91 26.91 0 0 0 0 26.92v162.21a26.91 26.91 0 0 0 26.91 26.92h110.6a26.905 26.905 0 0 0 24.865-16.619 26.9 26.9 0 0 0 2.045-10.301V49.25z" fill="#ecfff4"/>
  <path d="M164.42 49.24h-24.75a20.63 20.63 0 0 1-20.62-20.62V0zm19.52 121.36H58.9c-8.87 0-16.06 7.19-16.06 16.06v37.28c0 8.87 7.19 16.06 16.06 16.06h125.04c8.87 0 16.06-7.19 16.06-16.06v-37.28c0-8.87-7.19-16.06-16.06-16.06m-79.64-24.19H60.13a16.327 16.327 0 0 1-16.31-16.31V85.93a16.33 16.33 0 0 1 16.31-16.31h44.17a16.317 16.317 0 0 1 16.3 16.31v44.17a16.32 16.32 0 0 1-16.3 16.31M60.13 76.83a9.11 9.11 0 0 0-9.1 9.1v44.17a9.11 9.11 0 0 0 9.1 9.1h44.17a9.1 9.1 0 0 0 9.09-9.1V85.93a9.1 9.1 0 0 0-9.09-9.1z" fill="#00c650"/>
  <path d="M117 121.7v8.4a12.71 12.71 0 0 1-12.7 12.7H60.13a12.7 12.7 0 0 1-12.7-12.7V116c7.07-1.52 17.84-2 30.91 3.22l8.1-7.72 5.52 14s1.48-5.15 6.26-4.42 12.52 3.32 15.83 1.11a4.26 4.26 0 0 1 2.95-.49m-15.47-26.75a4.91 4.91 0 1 0 0-9.82 4.91 4.91 0 0 0 0 9.82" fill="#00c650"/>
  <path d="m69.327 220-8.757-30h8.037l4.54 19.658h.25L78.583 190h6.553l5.187 19.702h.25L95.126 190h8.022l-8.742 30H87.4l-5.422-18.193h-.235L76.32 220zm36.827 0v-30h20.981v5.889h-13.708v6.152h12.635v5.903h-12.635v6.167h13.708V220zm25.536 0v-30h12.547q3.379 0 5.657.952 2.292.953 3.438 2.666 1.161 1.714 1.161 3.97 0 1.714-.72 3.061a6.3 6.3 0 0 1-1.984 2.212q-1.263.879-2.924 1.231v.293a7.3 7.3 0 0 1 3.365.981 6.8 6.8 0 0 1 2.498 2.49q.94 1.582.94 3.75 0 2.417-1.234 4.322-1.234 1.89-3.571 2.988-2.335 1.084-5.671 1.084zm7.272-5.845h4.496q2.365 0 3.483-.893 1.131-.894 1.131-2.491 0-1.156-.544-1.992-.543-.85-1.543-1.303-.999-.47-2.394-.469h-4.629zm0-11.821h4.026q1.19 0 2.116-.396.925-.395 1.44-1.142.529-.747.529-1.802 0-1.509-1.073-2.373t-2.894-.864h-4.144zM159.165 220v-30h12.43q3.38 0 5.833 1.318 2.468 1.304 3.805 3.648 1.337 2.329 1.337 5.42 0 3.105-1.366 5.434-1.352 2.315-3.864 3.589-2.513 1.275-5.966 1.275h-7.669v-5.713h6.318q1.645 0 2.747-.572 1.117-.57 1.69-1.596.573-1.04.573-2.417 0-1.392-.573-2.403-.573-1.025-1.69-1.582-1.116-.556-2.747-.556h-3.585V220z" fill="#fff"/>
</svg>
