<svg viewBox="0 0 200 240" xmlns="http://www.w3.org/2000/svg">
  <path d="M139.67 49.25a20.64 20.64 0 0 1-20.62-20.62V0H26.91A26.91 26.91 0 0 0 0 26.91v162.22a26.91 26.91 0 0 0 26.91 26.91h110.6a26.907 26.907 0 0 0 26.91-26.91V49.25z" fill="#e8faef"/>
  <path d="M164.42 49.25h-24.75a20.64 20.64 0 0 1-20.62-20.62V0zm19.52 121.36H58.9c-8.87 0-16.06 7.19-16.06 16.06v37.28c0 8.87 7.19 16.06 16.06 16.06h125.04c8.87 0 16.06-7.19 16.06-16.06v-37.28c0-8.87-7.19-16.06-16.06-16.06" fill="#00c650"/>
  <path d="m82.458 222-7.409-10.894L68.671 222h-9.75l11.248-18.018L58.57 187h10.1l7.222 10.545L82.119 187h9.702l-11.096 17.622L92.57 222zm38.673-4.995a9.84 9.84 0 0 1-4.117 3.628 14.8 14.8 0 0 1-6.596 1.354 15.64 15.64 0 0 1-9.617-2.81 10.2 10.2 0 0 1-2.966-3.455 10.06 10.06 0 0 1-1.151-4.382h8.925a4.6 4.6 0 0 0 1.396 3.049 4.34 4.34 0 0 0 3.067 1.137 3.56 3.56 0 0 0 2.549-.876 3 3 0 0 0 .934-2.275 2.96 2.96 0 0 0-.865-2.172 6.7 6.7 0 0 0-2.133-1.433q-1.258-.546-3.529-1.331a44 44 0 0 1-5.374-2.15 9.8 9.8 0 0 1-3.575-3.094 8.8 8.8 0 0 1-1.499-5.346 9 9 0 0 1 1.568-5.278 9.9 9.9 0 0 1 4.348-3.412 15.9 15.9 0 0 1 6.354-1.138 14.36 14.36 0 0 1 9.225 2.719 10.4 10.4 0 0 1 2.724 3.324 10.2 10.2 0 0 1 1.128 4.126h-9.076a4.52 4.52 0 0 0-1.245-2.684 3.7 3.7 0 0 0-1.256-.778 3.7 3.7 0 0 0-1.466-.223 3.57 3.57 0 0 0-2.387.773c-.31.291-.552.645-.707 1.038a2.8 2.8 0 0 0-.192 1.237 2.87 2.87 0 0 0 .807 2.059 6.05 6.05 0 0 0 2.03 1.376c.818.353 1.995.808 3.528 1.354a40 40 0 0 1 5.455 2.207 10.56 10.56 0 0 1 3.621 3.162 9 9 0 0 1 1.522 5.425 9.3 9.3 0 0 1-1.43 4.869m13.98-1.488h11.459V222h-20v-35h8.565zM174.458 222l-7.409-10.894L160.671 222h-9.75l11.248-18.018L150.57 187h10.101l7.221 10.545L174.119 187h9.702l-11.095 17.622L184.57 222z" fill="#fff"/>
  <path fill="#00c650" d="M23.57 70h55v20h-55zm0 28h55v20h-55zm0 28h55v20h-55zm63-56h55v20h-55zm0 28h55v20h-55zm0 28h55v20h-55z"/>
</svg>
