<svg viewBox="0 0 200 240" xmlns="http://www.w3.org/2000/svg">
  <path d="M139.67 49.24a20.64 20.64 0 0 1-20.62-20.62V0H26.91A26.91 26.91 0 0 0 0 26.91v162.22A26.91 26.91 0 0 0 26.91 216h110.6a26.907 26.907 0 0 0 26.91-26.91V49.24z" fill="#f6edff"/>
  <path d="M164.42 49.24h-24.75a20.64 20.64 0 0 1-20.62-20.62V0zm19.52 121.36H58.9c-8.87 0-16.06 7.19-16.06 16.06v37.28c0 8.87 7.19 16.06 16.06 16.06h125.04c8.87 0 16.06-7.19 16.06-16.06v-37.28c0-8.87-7.19-16.06-16.06-16.06" fill="#a140ff"/>
  <path d="m93.458 222-7.42-10.895L79.67 222h-9.762l11.26-18.018L69.57 187h10.1l7.222 10.545L93.107 187h9.714l-11.107 17.622L103.57 222zm55.112-35v34.965h-8.395v-21.827L132.726 222h-7.265l-7.496-21.909V222h-8.395v-34.965h10.252l9.375 24.356 9.167-24.356zm14.159 28.517h10.841V222h-19v-35h8.137z" fill="#fff"/>
  <path d="M37.571 105.104c-.014-.68.116-1.348.367-1.898a6.4 6.4 0 0 1 1.071-1.581 13.6 13.6 0 0 1 1.915-1.329l1.914-1.265 7.657-5.14q1.598-1.186 5.952-3.954l3.64-2.372 1.31-.743.227-.158a.3.3 0 0 1 .189 0 .8.8 0 0 1 .466-.158c.307-.028.615.044.904.21s.556.422.782.754c.192.289.345.637.449 1.023s.157.803.156 1.223v4.017a5.6 5.6 0 0 1-.416 2.088c-.276.688-.688 1.211-1.17 1.486L47.34 107.508l15.642 10.2c.466.307.87.81 1.17 1.455.273.591.42 1.307.417 2.04v4.017c0 .425-.053.846-.157 1.237a3.6 3.6 0 0 1-.448 1.041 2.4 2.4 0 0 1-.778.779 1.5 1.5 0 0 1-.908.217.9.9 0 0 1-.466-.142l-.417-.222-1.31-.743-3.61-2.341-5.95-3.938-7.658-5.139-1.915-1.266a27 27 0 0 1-1.914-1.344c-.406-.302-.754-.772-1.007-1.362a5.7 5.7 0 0 1-.431-1.991zm51.142 31.895c-.508.019-1.01-.168-1.455-.542-.445-.373-.818-.92-1.08-1.585a8 8 0 0 1-.518-1.553l-.335-1.382-7.301-24.7-.528-1.832q-.912-2.982-3.529-11.83-3.397-11.257-3.397-12.343a4.2 4.2 0 0 1 .19-1.26c.125-.393.306-.737.53-1.007.506-.655 1.153-.998 1.815-.963h2.373c.5-.013.994.177 1.43.55.437.374.8.918 1.055 1.577l.527 1.553.335 1.382 1.906 6.427 5.395 18.273.71 2.329 3.347 11.256a158 158 0 0 1 3.387 12.42 4.2 4.2 0 0 1-.192 1.252 3 3 0 0 1-.528 1c-.506.656-1.153.999-1.815.962zm13.288-8.507a1.65 1.65 0 0 1-.969-.209 2.5 2.5 0 0 1-.833-.785c-.397-.601-.622-1.418-.629-2.272v-4.008a4.9 4.9 0 0 1 .412-2.035c.308-.662.739-1.168 1.236-1.452l16.291-10.177-16.291-10.162c-.495-.331-.914-.88-1.205-1.578-.28-.598-.435-1.314-.443-2.05v-4.072a4.4 4.4 0 0 1 .156-1.212c.107-.383.264-.728.462-1.013.484-.667 1.121-1.013 1.771-.962a.66.66 0 0 1 .433.158.5.5 0 0 1 .268 0l.216.157c-.062 0 .371.19 1.308.742l3.831 2.367q-.299-.206 6.178 3.945a368 368 0 0 1 8.094 5.27l.773.441 1.112.679q.984.537 1.894 1.325c.433.303.802.783 1.068 1.387.265.604.416 1.31.436 2.037v4.892a4.5 4.5 0 0 1-.412 1.862c-.287.612-.66 1.119-1.092 1.483-.587.442-1.277.915-2.059 1.42l-2.06 1.262-17.938 11.503c-.515.395-.824.647-.917.742l-.196.221z" fill="#a140ff"/>
</svg>
