<svg viewBox="0 0 200 241" xmlns="http://www.w3.org/2000/svg">
  <path d="M139.67 49.25a20.65 20.65 0 0 1-20.62-20.63V0H26.91A26.91 26.91 0 0 0 0 26.91v162.22A26.91 26.91 0 0 0 26.91 216h110.61a26.91 26.91 0 0 0 26.91-26.87V49.25z" fill="#fff5e6"/>
  <path d="M164.43 49.25h-24.76a20.65 20.65 0 0 1-20.62-20.63V0zm19.51 121.36H58.9c-8.87 0-16.06 7.19-16.06 16.06v37.28c0 8.87 7.19 16.06 16.06 16.06h125.04c8.87 0 16.06-7.19 16.06-16.06v-37.28c0-8.87-7.19-16.06-16.06-16.06" fill="#ff9908"/>
  <path d="M93.083 215.168H108V222H84v-6.437l14.681-21.777h-14.49V187h23.719v6.437zM124 187v35h-9v-35zm15.316 22.72V222H131v-35h13.429c4.083 0 7.206 1.024 9.345 3.096a11 11 0 0 1 2.483 3.817c.554 1.437.803 2.976.731 4.517a11.63 11.63 0 0 1-1.441 5.82 10.1 10.1 0 0 1-4.255 4.015 14.9 14.9 0 0 1-6.863 1.455zm9.242-11.29q0-4.597-5.01-4.656h-4.232v9.102h4.232q5.01.059 5.01-4.446" fill="#fff"/>
  <path d="M81.69 137.22a12.7 12.7 0 0 1-12.68-12.69v-12.69h25.37v12.69a12.7 12.7 0 0 1-12.69 12.69m-6.19-18.89v6.2a6.2 6.2 0 0 0 6.19 6.2 6.21 6.21 0 0 0 6.2-6.2v-6.2z" fill="#ff9908"/>
  <path d="M69 111.85h12.72V99.13H69z" fill="#ff9908"/>
  <path d="M81.69 99.14h12.72V86.42H81.69z" fill="#ff9908"/>
  <path d="M69 86.43h12.72V73.71H69z" fill="#ff9908"/>
  <path d="M81.69 73.72h12.72V61H81.69z" fill="#ff9908"/>
</svg>
